<svg xmlns="http://www.w3.org/2000/svg" xmlns:xlink="http://www.w3.org/1999/xlink" version="1.1" enable-background="new 0 0 1000 1000" xml:space="preserve" width="1000" height="1000" style=""><rect id="backgroundrect" width="100%" height="100%" x="0" y="0" fill="none" stroke="none"/>
<metadata> Svg Vector Icons : http://www.onlinewebfonts.com/icon </metadata>

<g class="currentLayer" style=""><title>Layer 1</title><path d="M908.5,74.37814178466797 h-817 c-45,0 -81.5,36.4 -81.5,81.3 v201.5 c0,209.3 131.9,397.7 317.2,467.7 v77.2 c0,15.7 5.3,20.4 18.7,21.7 C658.5,949.178141784668 990,709.678141784668 990,357.17814178466796 V155.67814178466796 C990,110.77814178466798 953.5,74.37814178466797 908.5,74.37814178466797 zM790.6,531.2781417846679 C726.2,626.2781417846679 619.3,682.978141784668 504.4,682.978141784668 c-190.3,0 -345.1,-154.5 -345.1,-344.3 c0,-22.6 18.4,-40.9 41,-40.9 c22.6,0 41,18.3 41,40.9 c0,144.7 118,262.5 263.1,262.5 c87.5,0 169.1,-43.3 218.2,-115.8 c12.7,-18.7 38.2,-23.6 56.9,-11 C798.3,487.078141784668 803.3,512.478141784668 790.6,531.2781417846679 zM814.7,388.37814178466795 c-29.1,0 -52.7,-23.6 -52.7,-52.6 c0,-29.1 23.6,-52.6 52.7,-52.6 c29.1,0 52.7,23.6 52.7,52.6 C867.4,364.778141784668 843.8,388.37814178466795 814.7,388.37814178466795 z" id="svg_2" fill="#24292e" fill-opacity="1" class=""/></g></svg>