<svg xmlns="http://www.w3.org/2000/svg" xmlns:xlink="http://www.w3.org/1999/xlink" version="1.1" enable-background="new 0 0 1000 1000" xml:space="preserve" width="1000" height="1000" style=""><rect id="backgroundrect" width="100%" height="100%" x="0" y="0" fill="none" stroke="none"/>
<metadata> Svg Vector Icons : http://www.onlinewebfonts.com/icon </metadata>

<g class="currentLayer" style=""><title>Layer 1</title><path d="M908.5,74.4h-817c-45,0-81.5,36.4-81.5,81.3v201.5c0,209.3,131.9,397.7,317.2,467.7v77.2c0,15.7,5.3,20.4,18.7,21.7C658.5,949.2,990,709.7,990,357.2V155.7C990,110.8,953.5,74.4,908.5,74.4z M790.6,531.3C726.2,626.3,619.3,683,504.4,683c-190.3,0-345.1-154.5-345.1-344.3c0-22.6,18.4-40.9,41-40.9c22.6,0,41,18.3,41,40.9c0,144.7,118,262.5,263.1,262.5c87.5,0,169.1-43.3,218.2-115.8c12.7-18.7,38.2-23.6,56.9-11C798.3,487.1,803.3,512.5,790.6,531.3z M814.7,388.4c-29.1,0-52.7-23.6-52.7-52.6c0-29.1,23.6-52.6,52.7-52.6c29.1,0,52.7,23.6,52.7,52.6C867.4,364.8,843.8,388.4,814.7,388.4z" id="svg_2" fill="#fcfcfc" fill-opacity="1" class=""/></g></svg>