<svg id="Layer_1" data-name="Layer 1" xmlns="http://www.w3.org/2000/svg" xmlns:xlink="http://www.w3.org/1999/xlink" viewBox="0 0 600.94 473.77"><defs><linearGradient id="linear-gradient" x1="620.48" y1="282.8" x2="510.27" y2="665.6" gradientUnits="userSpaceOnUse"><stop offset="0" stop-color="#010101" stop-opacity="0"/><stop offset="0.95" stop-color="#010101"/></linearGradient><linearGradient id="linear-gradient-2" x1="242.36" y1="425.65" x2="331.67" y2="425.65" xlink:href="#linear-gradient"/><linearGradient id="linear-gradient-3" x1="310.3" y1="410.48" x2="403.98" y2="401.66" xlink:href="#linear-gradient"/><linearGradient id="linear-gradient-4" x1="324.71" y1="147.54" x2="356.2" y2="147.54" gradientUnits="userSpaceOnUse"><stop offset="0" stop-color="#e5c6d6"/><stop offset="0.42" stop-color="#ead4d0"/><stop offset="1" stop-color="#f0e9cb"/></linearGradient><linearGradient id="linear-gradient-5" x1="439.43" y1="111.22" x2="340.24" y2="147.59" xlink:href="#linear-gradient"/><linearGradient id="linear-gradient-6" x1="366.63" y1="151.7" x2="274.79" y2="141.05" xlink:href="#linear-gradient"/><linearGradient id="linear-gradient-7" x1="250.9" y1="120.61" x2="341.03" y2="120.61" gradientUnits="userSpaceOnUse"><stop offset="0" stop-color="#fff" stop-opacity="0"/><stop offset="0.95" stop-color="#fff"/></linearGradient><linearGradient id="linear-gradient-8" x1="375.36" y1="260.3" x2="38.12" y2="317.61" xlink:href="#linear-gradient"/><linearGradient id="linear-gradient-9" x1="368.66" y1="180.44" x2="373.62" y2="354.57" xlink:href="#linear-gradient"/><linearGradient id="linear-gradient-10" x1="365.78" y1="157.89" x2="446.61" y2="157.89" xlink:href="#linear-gradient-4"/><linearGradient id="linear-gradient-11" x1="264.97" y1="118.64" x2="319.54" y2="118.64" xlink:href="#linear-gradient"/><linearGradient id="linear-gradient-12" x1="251.79" y1="104.68" x2="293.97" y2="104.68" xlink:href="#linear-gradient"/><linearGradient id="linear-gradient-13" x1="312.71" y1="273.68" x2="73.19" y2="351.56" xlink:href="#linear-gradient"/><linearGradient id="linear-gradient-14" x1="148.74" y1="367.63" x2="629.25" y2="139.87" xlink:href="#linear-gradient"/><linearGradient id="linear-gradient-15" x1="243.34" y1="354.73" x2="302.3" y2="354.73" xlink:href="#linear-gradient"/><linearGradient id="linear-gradient-16" x1="246.64" y1="262.8" x2="141.39" y2="180.15" xlink:href="#linear-gradient"/><linearGradient id="linear-gradient-17" x1="244.18" y1="310.39" x2="298.18" y2="390.47" xlink:href="#linear-gradient"/><linearGradient id="linear-gradient-18" x1="222.28" y1="382.36" x2="178.75" y2="300.81" xlink:href="#linear-gradient"/><linearGradient id="linear-gradient-19" x1="405.72" y1="206.32" x2="442.84" y2="206.32" xlink:href="#linear-gradient-7"/><linearGradient id="linear-gradient-20" x1="167.65" y1="311.87" x2="278.86" y2="327.83" xlink:href="#linear-gradient"/><linearGradient id="linear-gradient-21" x1="538.12" y1="351.12" x2="344.15" y2="754.49" xlink:href="#linear-gradient"/><linearGradient id="linear-gradient-22" x1="133.22" y1="366.65" x2="-41.64" y2="716.38" xlink:href="#linear-gradient"/></defs><title>Adventure 1</title><path d="M609,491.2c-.94.47-1.88.94-2.82,1.37-18.12,8.26-38.47,10.06-58.4,10.17-87.21.63-173.91-27.75-260.57-17.42-53.66,6.39-112.65,26.43-158.33-2.42-21.41-13.55-35.62-35.82-47.52-58.21C66,395.81,52.89,363.83,56.18,331.26a95,95,0,0,1,2-12c7.6-33.89,31.71-62.86,57.07-87.32,28.3-27.36,60-52.61,78.87-87.09,15-27.25,21.65-59.7,43.26-82.05,60.78-63,200.36-25.63,264.17,13.35,41.29,25.25,74.72,65.72,84.47,113.12,6,29.32,3,60.2,11.58,88.9,13.51,45.44,54.64,81.1,58.75,128.3C659.32,440.66,639.59,475.7,609,491.2Z" transform="translate(-55.66 -28.99)" fill="#69a1ff" opacity="0.24" style="isolation:isolate"/><path d="M609,491.2c-.94.47-1.88.94-2.82,1.37-18.12,8.26-38.47,10.06-58.4,10.17-87.21.63-173.91-27.75-260.57-17.42-53.66,6.39-112.65,26.43-158.33-2.42-21.41-13.55-35.62-35.82-47.52-58.21C66,395.81,52.89,363.83,56.18,331.26a95,95,0,0,1,2-12A33.92,33.92,0,0,1,62,318c28.69-7.9,64.31,1.1,83.33,24.23,12.29,15,18.09,34.09,26.07,51.79s19.85,35.42,38.16,41.76c30,10.37,62.79-13.7,93.63-6.5,17.54,4.15,31.28,17.74,48.15,24.08,49.12,18.51,106.62-28.5,154.37-6.62,5.48,2.51,10.61,5.91,16.37,7.59,7.24,2.16,14.91,1.53,22.46,1.38a181.1,181.1,0,0,1,35.94,2.77c6.18,1.14,12.6,2.74,17.06,7.13,3.21,3.13,5.05,7.4,6.66,11.58C606,481.76,607.61,486.46,609,491.2Z" transform="translate(-55.66 -28.99)" fill="#69a1ff" opacity="0.24" style="isolation:isolate"/><path d="M541.36,329c-.74-21.86,4-43.49,8.95-64.79C571.24,282.84,592.59,302,606,326.55c5,9.15,8.82,19,14.8,27.5,7.35,10.48,17.67,18.62,24.73,29.29,13.49,20.38,12.59,49.24-2.15,68.74a13.77,13.77,0,0,1-5.37,4.78c-2.8,1.17-6,.61-8.94-.12-25.85-6.42-47.81-25.79-58.37-50.11C559.28,380.34,542.38,359.25,541.36,329Z" transform="translate(-55.66 -28.99)" fill="#69a1ff"/><path d="M541.36,329c-.74-21.86,4-43.49,8.95-64.79C571.24,282.84,592.59,302,606,326.55c5,9.15,8.82,19,14.8,27.5,7.35,10.48,17.67,18.62,24.73,29.29,13.49,20.38,12.59,49.24-2.15,68.74a13.77,13.77,0,0,1-5.37,4.78c-2.8,1.17-6,.61-8.94-.12-25.85-6.42-47.81-25.79-58.37-50.11C559.28,380.34,542.38,359.25,541.36,329Z" transform="translate(-55.66 -28.99)" fill="url(#linear-gradient)"/><path d="M247.22,411.55c4.86,16.39,14.32,31.68,15.29,48.74.44,7.79-3.7,22.24-5.07,29.91,15.15,2.41,33.42-4.18,48.6-6.36,2.29-.33,4.69-.76,6.49-2.21s2.7-3.6,3.54-5.71a222,222,0,0,0,15.1-96.6c-.35-5.07-.89-10.21-2.75-14.94a6.22,6.22,0,0,0-2-3,7,7,0,0,0-4-.8l-37.83.21c-11.5.06-29.65-.24-38.24,9.13C238.48,378.41,244.25,401.54,247.22,411.55Z" transform="translate(-55.66 -28.99)" fill="#606161"/><path d="M247.22,411.55c4.86,16.39,14.32,31.68,15.29,48.74.44,7.79-3.7,22.24-5.07,29.91,15.15,2.41,33.42-4.18,48.6-6.36,2.29-.33,4.69-.76,6.49-2.21s2.7-3.6,3.54-5.71a222,222,0,0,0,15.1-96.6c-.35-5.07-.89-10.21-2.75-14.94a6.22,6.22,0,0,0-2-3,7,7,0,0,0-4-.8l-37.83.21c-11.5.06-29.65-.24-38.24,9.13C238.48,378.41,244.25,401.54,247.22,411.55Z" transform="translate(-55.66 -28.99)" fill="url(#linear-gradient-2)"/><path d="M360.71,403.82a560.91,560.91,0,0,0,1,73.11,6.5,6.5,0,0,1-.4,3.64c-1.06,2-3.72,2.3-6,2.37q-20.2.56-40.41-.47a5.53,5.53,0,0,1-6-4.3c-3.45-7.77-6.39-15.88-11.39-22.76-6.14-8.47-15-14.54-21.81-22.49-9.86-11.55-14.88-26.53-17.31-41.51-.64-3.93-1-8.39,1.52-11.48,2.23-2.75,6-3.54,9.44-4.44,12-3.16,22.78-9.66,33.38-16.09,8.5-5.16,17.09-10.34,24.67-16.82,6.18-5.28,12.36-14.89,21.81-11.32,5.85,2.21,6.05,7.17,6,12.74,0,8-.4,14.92,1.88,22.69C360.89,379.32,361.38,390.71,360.71,403.82Z" transform="translate(-55.66 -28.99)" fill="#606161"/><path d="M360.71,403.82a560.91,560.91,0,0,0,1,73.11,6.5,6.5,0,0,1-.4,3.64c-1.06,2-3.72,2.3-6,2.37q-20.2.56-40.41-.47a5.53,5.53,0,0,1-6-4.3c-3.45-7.77-6.39-15.88-11.39-22.76-6.14-8.47-15-14.54-21.81-22.49-9.86-11.55-14.88-26.53-17.31-41.51-.64-3.93-1-8.39,1.52-11.48,2.23-2.75,6-3.54,9.44-4.44,12-3.16,22.78-9.66,33.38-16.09,8.5-5.16,17.09-10.34,24.67-16.82,6.18-5.28,12.36-14.89,21.81-11.32,5.85,2.21,6.05,7.17,6,12.74,0,8-.4,14.92,1.88,22.69C360.89,379.32,361.38,390.71,360.71,403.82Z" transform="translate(-55.66 -28.99)" fill="url(#linear-gradient-3)"/><path d="M339.7,119.42a11.38,11.38,0,0,1,6.65,2.13,10.24,10.24,0,0,1,2.51,3.11c3.48,6.33,2.19,14.41,5.49,20.84.88,1.7,2.1,3.44,1.8,5.33-.26,1.69-1.66,2.94-2.41,4.47-1.38,2.82-.43,6.22-1.19,9.26a13.09,13.09,0,0,1-2.37,4.58,17.57,17.57,0,0,1-5.65,5.24,9.6,9.6,0,0,1-7.51.87c-2.72-.92-4.68-3.25-6.44-5.52a29.69,29.69,0,0,1-4.41-7.07c-1.74-4.36-1.54-9.22-1.3-13.91C325.35,139.08,325.91,118.77,339.7,119.42Z" transform="translate(-55.66 -28.99)" fill="url(#linear-gradient-4)"/><path d="M356.83,117.51a3.48,3.48,0,0,1-.8.63,3,3,0,0,1-1.28.2,47.42,47.42,0,0,0-7.14.58,2.16,2.16,0,0,0-1.12.4,2.2,2.2,0,0,0-.54,1.31,57.31,57.31,0,0,0-.6,13.15c.1,1.4.34,3,1.49,3.8a5.1,5.1,0,0,0,3.05.6l3.67-.07a1.58,1.58,0,0,1,.89.17c.38.24.46.75.57,1.19.63,2.72,3.14,4.67,5.79,5.55s5.5.91,8.28,1.17c8.78.84,17.19,4.07,26,4.9A4.31,4.31,0,0,0,399,150l5.37-4.23a5,5,0,0,1,1.65-1,4.82,4.82,0,0,1,1.56-.12c5.64.23,11.87,1.18,16.42-2.15a15.47,15.47,0,0,0,4.95-7.14,21.69,21.69,0,0,0,1.61-9.26,16.54,16.54,0,0,0-5.65-11.22,5.62,5.62,0,0,0-1.66-1.07,6.71,6.71,0,0,0-2.23-.29l-18.62-.36c-9.06-.17-18.12-.34-27.18-.2a34.08,34.08,0,0,0-9.75,1.31C362.36,115.21,359.35,115.13,356.83,117.51Z" transform="translate(-55.66 -28.99)" fill="#606161"/><path d="M356.83,117.51a3.48,3.48,0,0,1-.8.63,3,3,0,0,1-1.28.2,47.42,47.42,0,0,0-7.14.58,2.16,2.16,0,0,0-1.12.4,2.2,2.2,0,0,0-.54,1.31,57.31,57.31,0,0,0-.6,13.15c.1,1.4.34,3,1.49,3.8a5.1,5.1,0,0,0,3.05.6l3.67-.07a1.58,1.58,0,0,1,.89.17c.38.24.46.75.57,1.19.63,2.72,3.14,4.67,5.79,5.55s5.5.91,8.28,1.17c8.78.84,17.19,4.07,26,4.9A4.31,4.31,0,0,0,399,150l5.37-4.23a5,5,0,0,1,1.65-1,4.82,4.82,0,0,1,1.56-.12c5.64.23,11.87,1.18,16.42-2.15a15.47,15.47,0,0,0,4.95-7.14,21.69,21.69,0,0,0,1.61-9.26,16.54,16.54,0,0,0-5.65-11.22,5.62,5.62,0,0,0-1.66-1.07,6.71,6.71,0,0,0-2.23-.29l-18.62-.36c-9.06-.17-18.12-.34-27.18-.2a34.08,34.08,0,0,0-9.75,1.31C362.36,115.21,359.35,115.13,356.83,117.51Z" transform="translate(-55.66 -28.99)" fill="url(#linear-gradient-5)"/><path d="M344,107.25c4.48,9.71,3.14,21,2.46,31.63A226.05,226.05,0,0,0,348.83,189c-5.45-4.68-12.33-7.44-19.35-9s-14.22-1.9-21.4-2.26a14.94,14.94,0,0,0-4.58.23c-3.94,1-6.35,5-7.67,8.87s-2,8-4.39,11.35l2-18.17a7.79,7.79,0,0,0-.4-4.47,6,6,0,0,0-2.76-2.41A12.45,12.45,0,0,0,278,174c-1.39-6.61,3.61-12.71,5.22-19.27,1.15-4.67.55-9.58.23-14.38a108,108,0,0,1,.65-22.09c.6-4.39,1.53-8.81,3.72-12.65,3.57-6.26,10.11-10.3,16.88-12.77,7.36-2.68,16.37-3.52,22.36,1.52,1.47,1.24,2.88,3.11,4.84,3.55,1.71.38,3,0,4.7.93C339.94,100.62,342.39,103.88,344,107.25Z" transform="translate(-55.66 -28.99)" fill="#606161"/><path d="M344,107.25c4.48,9.71,3.14,21,2.46,31.63A226.05,226.05,0,0,0,348.83,189c-5.45-4.68-12.33-7.44-19.35-9s-14.22-1.9-21.4-2.26a14.94,14.94,0,0,0-4.58.23c-3.94,1-6.35,5-7.67,8.87s-2,8-4.39,11.35l2-18.17a7.79,7.79,0,0,0-.4-4.47,6,6,0,0,0-2.76-2.41A12.45,12.45,0,0,0,278,174c-1.39-6.61,3.61-12.71,5.22-19.27,1.15-4.67.55-9.58.23-14.38a108,108,0,0,1,.65-22.09c.6-4.39,1.53-8.81,3.72-12.65,3.57-6.26,10.11-10.3,16.88-12.77,7.36-2.68,16.37-3.52,22.36,1.52,1.47,1.24,2.88,3.11,4.84,3.55,1.71.38,3,0,4.7.93C339.94,100.62,342.39,103.88,344,107.25Z" transform="translate(-55.66 -28.99)" fill="url(#linear-gradient-6)"/><path d="M310.87,83.52l-9.48-7.43a3.76,3.76,0,0,0-4.16-.89c-9.52,2.41-18.77,6.58-25.89,13.34-10,9.51-14.91,23.19-18.16,36.62-.52,2.17-1,4.51-.19,6.58a11.39,11.39,0,0,0,3,3.81l7.75,7.44A3.86,3.86,0,0,1,265,144.8a3.56,3.56,0,0,1-.58,2.34c-1.46,2.73-3.47,5.13-5,7.8s-2.7,5.8-2.15,8.85a8.86,8.86,0,0,0,7.78,7.06c2.68.22,5.29-.82,7.75-1.92a116.65,116.65,0,0,0,45.39-36.41c6.34-8.5,11.49-17.84,16.34-27.28,2.81-5.48,5.55-11.06,7.13-17a24.47,24.47,0,0,0,.64-11.7,3.78,3.78,0,0,0-.89-1.89,3.93,3.93,0,0,0-2.36-.85A26.46,26.46,0,0,0,317.89,81a7.85,7.85,0,0,1-4.22,2.5C312.86,83.67,311.52,84,310.87,83.52Z" transform="translate(-55.66 -28.99)" fill="#69a1ff"/><path d="M309.22,81.87l-9.48-7.43a5,5,0,0,0-1.9-1.08,4.89,4.89,0,0,0-2.27.19c-9.51,2.4-18.77,6.57-25.88,13.33-10,9.52-14.91,23.2-18.16,36.63-.52,2.17-1,4.5-.19,6.58a11.22,11.22,0,0,0,3,3.8l7.75,7.44a3.77,3.77,0,0,1,1.26,1.81,3.48,3.48,0,0,1-.57,2.34c-1.46,2.73-3.47,5.14-5,7.81s-2.7,5.79-2.15,8.84a8.87,8.87,0,0,0,7.77,7.07c2.69.22,5.3-.82,7.76-1.92a116.54,116.54,0,0,0,45.38-36.41c6.35-8.51,11.5-17.84,16.35-27.28,2.81-5.48,5.55-11.06,7.12-17a24.42,24.42,0,0,0,.64-11.69,3.76,3.76,0,0,0-.88-1.89,4,4,0,0,0-2.37-.86,26.56,26.56,0,0,0-21.09,7.24A7.83,7.83,0,0,1,312,81.88C311.2,82,309.86,82.38,309.22,81.87Z" transform="translate(-55.66 -28.99)" fill="url(#linear-gradient-7)"/><path d="M256.23,216.07c-.52,33.31-1.24,66.75-6.44,99.65-2.18,13.83-5.15,27.95-2.5,41.69a18.44,18.44,0,0,0,12.36,15.66,79.94,79.94,0,0,0,17.11,5.12c8.3,1.68,16.91,2.76,25.2,1,17.21-3.62,29.83-18.78,36.88-34.89,1.48-3.38,4.14-7.57,7.68-6.52,4.33,1.28,3.61,8.83,7.82,10.47,4.19-10.25-1.62-21.64-2.18-32.7-.63-12.38,5.39-24,10.62-35.24s9.92-23.86,6.54-35.79c-1.47-5.21-4.4-9.88-6.15-15-2.51-7.3-2.55-15.23-4.66-22.66-4.08-14.42-15.91-25.88-29.7-31.76-13.14-5.61-34.14-9.38-48.23-4.79C259.48,177.22,256.54,196.44,256.23,216.07Z" transform="translate(-55.66 -28.99)" fill="#69a1ff"/><path d="M256.23,216.07c-.52,33.31-1.24,66.75-6.44,99.65-2.18,13.83-5.15,27.95-2.5,41.69a18.44,18.44,0,0,0,12.36,15.66,79.94,79.94,0,0,0,17.11,5.12c8.3,1.68,16.91,2.76,25.2,1,17.21-3.62,29.83-18.78,36.88-34.89,1.48-3.38,4.14-7.57,7.68-6.52,4.33,1.28,3.61,8.83,7.82,10.47,4.19-10.25-1.62-21.64-2.18-32.7-.63-12.38,5.39-24,10.62-35.24s9.92-23.86,6.54-35.79c-1.47-5.21-4.4-9.88-6.15-15-2.51-7.3-2.55-15.23-4.66-22.66-4.08-14.42-15.91-25.88-29.7-31.76-13.14-5.61-34.14-9.38-48.23-4.79C259.48,177.22,256.54,196.44,256.23,216.07Z" transform="translate(-55.66 -28.99)" fill="url(#linear-gradient-8)"/><path d="M326,176.82c-5.41-.92-11.62-1.38-15.71,2.28a14.59,14.59,0,0,0-3.78,6.25c-3.07,8.79-1.82,18.8,2.51,27s11.56,14.77,19.8,19.11a53,53,0,0,0,37.28,4.77c9.22-2.33,17.66-7.3,27-9.21,12.24-2.52,26.06.18,36.5-6.7a9.8,9.8,0,0,0,2.89-2.66,9.18,9.18,0,0,0,1.35-4.15c.84-7.67-3.67-15-9-20.51a14.53,14.53,0,0,0-5-3.73,15.19,15.19,0,0,0-5.41-.76c-10.7-.1-21.36,1.33-32.06,1.34-7.67,0-15.45-.73-22.73-3.22-3-1-5.65-2.56-8.55-3.65a107.16,107.16,0,0,0-11.12-3.24Q333,178,326,176.82Z" transform="translate(-55.66 -28.99)" fill="#69a1ff"/><path d="M326,176.82c-5.41-.92-11.62-1.38-15.71,2.28a14.59,14.59,0,0,0-3.78,6.25c-3.07,8.79-1.82,18.8,2.51,27s11.56,14.77,19.8,19.11a53,53,0,0,0,37.28,4.77c9.22-2.33,17.66-7.3,27-9.21,12.24-2.52,26.06.18,36.5-6.7a9.8,9.8,0,0,0,2.89-2.66,9.18,9.18,0,0,0,1.35-4.15c.84-7.67-3.67-15-9-20.51a14.53,14.53,0,0,0-5-3.73,15.19,15.19,0,0,0-5.41-.76c-10.7-.1-21.36,1.33-32.06,1.34-7.67,0-15.45-.73-22.73-3.22-3-1-5.65-2.56-8.55-3.65a107.16,107.16,0,0,0-11.12-3.24Q333,178,326,176.82Z" transform="translate(-55.66 -28.99)" fill="url(#linear-gradient-9)"/><path d="M371.27,143.12a1.93,1.93,0,0,0,.2,1.3,1.87,1.87,0,0,0,1.16.64c3,.72,6.07-.56,9.09-1.23,4.55-1,9.28-.61,13.92-.22a2,2,0,0,1,2,1.35c5.28,9.18,10.69,18.81,11.23,29.39a56.23,56.23,0,0,0,.41,7.12c1.34,7.37,7.69,12.55,12.56,18.23,2.37,2.77,4.49,5.8,7.34,8.09s6.66,3.74,10.15,2.71c3.91-1.14,6.43-5.15,7.05-9.17s-.29-8.11-1.2-12.08c-1.85-8.13-3.73-16.34-7.31-23.87-5.11-10.75-13.4-19.59-20.23-29.32a124.06,124.06,0,0,1-12.05-21.37c-.72-1.65-1.48-3.4-3-4.42-3.3-2.27-7.87.35-11.78-.54-2.71-.62-4.74-2.84-7.22-4.1s-6.35-.91-7,1.78a15.66,15.66,0,0,0-10,2.49c-.4.26-.83.63-.81,1.1s.42.75.78,1c5.79,4.14,12.29,10.35,15.05,17.07C384.43,136,372.11,136.07,371.27,143.12Z" transform="translate(-55.66 -28.99)" fill="url(#linear-gradient-10)"/><path d="M277.42,156.36c8.34-5,16.8-10.16,23.37-17.35s10.93-16.15,14.3-25.3c2.44-6.6,4.42-13.48,4.44-20.51,0-1.93.12-.87-.65-2.64-1.71-4-7.77-7.9-11.71-9.65,3.35,6.51,1.95,13.23-1.43,19.73C301,109.7,295.39,118.38,288,125.45c-3,2.9-23,18.51-23,18.51C265,144.8,273.36,153,277.42,156.36Z" transform="translate(-55.66 -28.99)" fill="#606161"/><path d="M277.42,156.36c8.34-5,16.8-10.16,23.37-17.35s10.93-16.15,14.3-25.3c2.44-6.6,4.42-13.48,4.44-20.51,0-1.93.12-.87-.65-2.64-1.71-4-7.77-7.9-11.71-9.65,3.35,6.51,1.95,13.23-1.43,19.73C301,109.7,295.39,118.38,288,125.45c-3,2.9-23,18.51-23,18.51C265,144.8,273.36,153,277.42,156.36Z" transform="translate(-55.66 -28.99)" fill="url(#linear-gradient-11)"/><path d="M291.28,91.21c-6.76,16.08-16.94,31.68-32.41,39.74-1.5.78-3.26,1.49-4.82.84a4.2,4.2,0,0,1-2.26-4.07,12.45,12.45,0,0,1,1.44-4.71l6-13.13c3.43-7.47,6.92-15,12.27-21.28,4.22-4.93,9.81-9,16.18-10.63,3-.75,5.33-1.55,6.07,1.87C294.57,83.49,292.66,87.93,291.28,91.21Z" transform="translate(-55.66 -28.99)" fill="url(#linear-gradient-12)"/><path d="M275,205.18a4.83,4.83,0,0,0-1.15,2.77c0,1.38,1.11,2.47,2.07,3.47,11.19,11.77,11.1,29.87,12,46.09.91,17.16,3.63,34.17,6.34,51.14.79,4.93,1.66,10.07,4.63,14.09,5.59,7.59,16.48,8.66,24.15,14.15,2.13,1.52,4.12,3.58,4.57,6.17s-.79,5.37-2,7.82l-12.81,25.54a43.24,43.24,0,0,1-6,9.74A37.93,37.93,0,0,1,298,393c-16.87,10.37-36.31,17.6-56.09,16.69s-39.78-11-49.14-28.48c-6.71-12.5-7.5-27.31-6.75-41.48s2.9-28.36,1.48-42.48c-.78-7.75-2.64-15.45-2.3-23.24.45-10.7,5-20.75,9.44-30.5,2.79-6.09,5.62-12.25,9.85-17.44,4.71-5.77,11.1-10.29,14.47-16.93,1.11-2.19,2-4.74,4.19-5.88a9.41,9.41,0,0,1,4.54-.7c7.79.11,16.6-.1,21.88-5.83,4-4.39,4.79-10.78,6.92-16.36s7.39-11.18,13.16-9.63a100.41,100.41,0,0,0-2.16,26.62c9.36-6.6,16.74-15.72,26.22-22.15,6.17-4.19,15.09-8.06,22.75-6.72,10.68,1.87,4.42,7.19-1.85,9.65C299.59,184,284.42,191.68,275,205.18Z" transform="translate(-55.66 -28.99)" fill="#69a1ff"/><path d="M275,205.18a4.83,4.83,0,0,0-1.15,2.77c0,1.38,1.11,2.47,2.07,3.47,11.19,11.77,11.1,29.87,12,46.09.91,17.16,3.63,34.17,6.34,51.14.79,4.93,1.66,10.07,4.63,14.09,5.59,7.59,16.48,8.66,24.15,14.15,2.13,1.52,4.12,3.58,4.57,6.17s-.79,5.37-2,7.82l-12.81,25.54a43.24,43.24,0,0,1-6,9.74A37.93,37.93,0,0,1,298,393c-16.87,10.37-36.31,17.6-56.09,16.69s-39.78-11-49.14-28.48c-6.71-12.5-7.5-27.31-6.75-41.48s2.9-28.36,1.48-42.48c-.78-7.75-2.64-15.45-2.3-23.24.45-10.7,5-20.75,9.44-30.5,2.79-6.09,5.62-12.25,9.85-17.44,4.71-5.77,11.1-10.29,14.47-16.93,1.11-2.19,2-4.74,4.19-5.88a9.41,9.41,0,0,1,4.54-.7c7.79.11,16.6-.1,21.88-5.83,4-4.39,4.79-10.78,6.92-16.36s7.39-11.18,13.16-9.63a100.41,100.41,0,0,0-2.16,26.62c9.36-6.6,16.74-15.72,26.22-22.15,6.17-4.19,15.09-8.06,22.75-6.72,10.68,1.87,4.42,7.19-1.85,9.65C299.59,184,284.42,191.68,275,205.18Z" transform="translate(-55.66 -28.99)" fill="url(#linear-gradient-13)"/><path d="M250.2,263.47c1.07-7.24,3.27-14.24,5.47-21.22l6.29-20c.52-1.65,1.17-3.46,2.72-4.23,2.27-1.14,4.9.66,6.61,2.54,12.35,13.5,12,33.81,13.51,52,1.71,20.93,7.8,43.2,24.38,56.09,6.83,5.32,16.12,10.41,16.08,19.07,0,4.21-2.42,8-4.74,11.51l-11.08,16.8c-5.9,8.95-13.09,18.75-23.72,20.14a12.52,12.52,0,0,1-9.16-2c-3.2-2.43-4.43-6.6-5.48-10.48C260.76,345.53,245.17,303.65,250.2,263.47Z" transform="translate(-55.66 -28.99)" fill="url(#linear-gradient-14)"/><path d="M253.09,384.38a11,11,0,0,0,2.65,3.93c2.71,2.24,6.74,1.56,10.09.5a134.51,134.51,0,0,0,18-7.68,82.19,82.19,0,0,0,11.82-6.59,14.53,14.53,0,0,0,4.18-4.16,6.38,6.38,0,0,0,.62-5.68,10.81,10.81,0,0,0-1.81-2.56,64.34,64.34,0,0,1-13.11-24.91c-1.2-4.45-1.92-9.05-3.78-13.26a3.17,3.17,0,0,0-1-1.4,3.34,3.34,0,0,0-2.64-.15c-7.49,1.63-15.16,3.35-21.57,7.54a72.42,72.42,0,0,0-10.22,8.7c-2.16,2.08-4.36,4.13-4.43,7.3-.17,7.89,3.06,17,5.54,24.37A127.29,127.29,0,0,0,253.09,384.38Z" transform="translate(-55.66 -28.99)" fill="#69a1ff"/><path d="M254.56,383.09a11,11,0,0,0,2.65,3.94c2.71,2.24,6.74,1.56,10.09.49a135.07,135.07,0,0,0,18-7.68,82.19,82.19,0,0,0,11.82-6.59,14.5,14.5,0,0,0,4.18-4.15,6.38,6.38,0,0,0,.62-5.68,10.67,10.67,0,0,0-1.81-2.57A64.27,64.27,0,0,1,287,335.94c-1.2-4.44-1.93-9.05-3.78-13.26a3.17,3.17,0,0,0-1-1.4,3.43,3.43,0,0,0-2.64-.15c-7.49,1.64-15.16,3.35-21.57,7.55a71.77,71.77,0,0,0-10.22,8.7c-2.16,2.07-4.36,4.13-4.43,7.29-.17,7.89,3.06,17,5.54,24.37A126.51,126.51,0,0,0,254.56,383.09Z" transform="translate(-55.66 -28.99)" fill="url(#linear-gradient-15)"/><path d="M250.46,231.57c-1.76,5.74-2.85,11.82-6.11,16.86-2.51,3.87-6.14,6.85-9.58,9.92a155.87,155.87,0,0,0-17.9,18.88c-1.63,2-3.27,4.17-5.51,5.53a18,18,0,0,1-7,2.09,64.46,64.46,0,0,1-18.14-.07c-1.81-.26-3.75-.68-5-2a8.26,8.26,0,0,1-1.62-4.26,87.6,87.6,0,0,1,25.28-76.28,22.23,22.23,0,0,1,6.76-4.85,25.58,25.58,0,0,1,7.69-1.42c11.83-.93,24.29-1.76,35,3.31,2.18,1,7.44,3.2,8.5,5.51,1.29,2.8-1.64,5.21-3.14,7.42A72.23,72.23,0,0,0,250.46,231.57Z" transform="translate(-55.66 -28.99)" fill="#69a1ff"/><path d="M250.46,231.57c-1.76,5.74-2.85,11.82-6.11,16.86-2.51,3.87-6.14,6.85-9.58,9.92a155.87,155.87,0,0,0-17.9,18.88c-1.63,2-3.27,4.17-5.51,5.53a18,18,0,0,1-7,2.09,64.46,64.46,0,0,1-18.14-.07c-1.81-.26-3.75-.68-5-2a8.26,8.26,0,0,1-1.62-4.26,87.6,87.6,0,0,1,25.28-76.28,22.23,22.23,0,0,1,6.76-4.85,25.58,25.58,0,0,1,7.69-1.42c11.83-.93,24.29-1.76,35,3.31,2.18,1,7.44,3.2,8.5,5.51,1.29,2.8-1.64,5.21-3.14,7.42A72.23,72.23,0,0,0,250.46,231.57Z" transform="translate(-55.66 -28.99)" fill="url(#linear-gradient-16)"/><path d="M254.39,306.37c-7.66,2.77-14.59,7.21-21.44,11.6-1.52,1-3.12,2-3.87,3.69-1.28,2.83.4,6,1.82,8.78a55.21,55.21,0,0,1,6,23c5.52-1.69,11.28,2.67,17,2a19.69,19.69,0,0,0,6.88-2.68L278.72,343a12.57,12.57,0,0,0,6.91-7.27c1.82-3.72,3.68-7.78,2.83-11.83a18.54,18.54,0,0,0-2-4.75c-1.9-3.63-7.62-19.52-11.57-20.08-1.91-.28-7.63,3.28-9.69,3.94C261.63,304.18,258,305.08,254.39,306.37Z" transform="translate(-55.66 -28.99)" fill="#69a1ff"/><path d="M253.1,306.92c-7.66,2.78-14.58,7.21-21.44,11.61-1.52,1-3.12,2-3.87,3.68-1.28,2.83.41,6,1.82,8.78a55.06,55.06,0,0,1,6,23c5.53-1.69,11.28,2.68,17,2a19.62,19.62,0,0,0,6.88-2.68l17.92-9.75a12.6,12.6,0,0,0,6.9-7.27c1.82-3.72,3.68-7.78,2.84-11.83a18.9,18.9,0,0,0-2-4.75c-1.9-3.62-7.63-19.52-11.58-20.08-1.91-.27-7.63,3.28-9.69,3.94C260.34,304.73,256.66,305.63,253.1,306.92Z" transform="translate(-55.66 -28.99)" fill="url(#linear-gradient-17)"/><path d="M237.19,370.84A83.83,83.83,0,0,1,241,386.56c.26,2.31.27,4.86-1.11,6.73s-3.86,2.61-6.18,2.61a50.54,50.54,0,0,1-6.9-.91c-5.11-.67-10.42.17-15.35-1.33a32.07,32.07,0,0,1-4.8-2l-13.22-6.39a6.67,6.67,0,0,1-1.64-1,6,6,0,0,1-1.34-2.09A34.64,34.64,0,0,1,188.3,361c1.45-6.73,4.9-12.93,6.09-19.71.68-3.91.65-8.08,2.62-11.51a5.75,5.75,0,0,1,2.13-2.27,7.78,7.78,0,0,1,3.56-.63c3.82-.06,1.15-5,5-5.06,2.62,0,12.71.29,14.88,2s2.52,10.39,3.42,13q3.71,10.74,7.23,21.55Q235.23,364.62,237.19,370.84Z" transform="translate(-55.66 -28.99)" fill="#69a1ff"/><path d="M237.19,370.84A83.83,83.83,0,0,1,241,386.56c.26,2.31.27,4.86-1.11,6.73s-3.86,2.61-6.18,2.61a50.54,50.54,0,0,1-6.9-.91c-5.11-.67-10.42.17-15.35-1.33a32.07,32.07,0,0,1-4.8-2l-13.22-6.39a6.67,6.67,0,0,1-1.64-1,6,6,0,0,1-1.34-2.09A34.64,34.64,0,0,1,188.3,361c1.45-6.73,4.9-12.93,6.09-19.71.68-3.91.65-8.08,2.62-11.51a5.75,5.75,0,0,1,2.13-2.27,7.78,7.78,0,0,1,3.56-.63c3.82-.06,1.15-5,5-5.06,2.62,0,12.71.29,14.88,2s2.52,10.39,3.42,13q3.71,10.74,7.23,21.55Q235.23,364.62,237.19,370.84Z" transform="translate(-55.66 -28.99)" fill="url(#linear-gradient-18)"/><path d="M412.35,183.31c-2.16,1.59-4.07,3.67-6.63,4.5,1.16,3.94,6.15,5.62,7.71,9.41,1.06,2.58.3,5.49-.13,8.24-1.08,6.92.05,14,1.18,20.87.28,1.71.74,3.68,2.31,4.42a5.26,5.26,0,0,0,1.81.37c3.36.24,6.91,0,9.8-1.68,3.91-2.33,6.1-7.14,10.37-8.7,1.31-.48,2.88-.71,3.64-1.88a4.37,4.37,0,0,0,.13-3.5c-1.56-6-4.6-11.4-7.66-16.74a53.44,53.44,0,0,0-5.86-8.75,48.81,48.81,0,0,0-8.41-7.23C417.86,180.64,415.07,181.31,412.35,183.31Z" transform="translate(-55.66 -28.99)" fill="#69a1ff"/><path d="M412.35,183.31c-2.16,1.59-4.07,3.67-6.63,4.5,1.16,3.94,6.15,5.62,7.71,9.41,1.06,2.58.3,5.49-.13,8.24-1.08,6.92.05,14,1.18,20.87.28,1.71.74,3.68,2.31,4.42a5.26,5.26,0,0,0,1.81.37c3.36.24,6.91,0,9.8-1.68,3.91-2.33,6.1-7.14,10.37-8.7,1.31-.48,2.88-.71,3.64-1.88a4.37,4.37,0,0,0,.13-3.5c-1.56-6-4.6-11.4-7.66-16.74a53.44,53.44,0,0,0-5.86-8.75,48.81,48.81,0,0,0-8.41-7.23C417.86,180.64,415.07,181.31,412.35,183.31Z" transform="translate(-55.66 -28.99)" fill="url(#linear-gradient-19)"/><path d="M209.71,331.42c-.17,4.94.83,9.83,1.55,14.72,1.43,9.63,1.62,20.19-3.82,28.26a1.22,1.22,0,0,1-1.83.57Q193.1,370,181,363.92a5.16,5.16,0,0,1-2.28-1.74,5.27,5.27,0,0,1-.48-2.92l.84-28.18a30.11,30.11,0,0,1,.49-5.36,16.38,16.38,0,0,1,3-6.51,7.56,7.56,0,0,1,3.23-2.68,9.27,9.27,0,0,1,3.75-.28c8.52.5,17,1.13,25.54,1.76a8.77,8.77,0,0,1,2.84.53c2.35,1,3.34,3.74,4.08,6.18-.81-2.65-6.27-2.26-8.18-1.68C210.7,324,209.81,328.59,209.71,331.42Z" transform="translate(-55.66 -28.99)" fill="#69a1ff"/><path d="M213.92,244.52c-4.7,6.58-8.73,13.78-10.73,21.69-2.62,10.25-1.68,21.06-1.48,31.66a223.55,223.55,0,0,1-19.61,95.2c-2.82,6.22-6.07,12.52-11.51,16.63-2.15-2.39-4.35-4.77-6.54-7.16a4.54,4.54,0,0,1-.9-1.21,2.53,2.53,0,0,1-.35-.87,4,4,0,0,1,.94-2.7c2.93-4.38,6.93-8,9.74-12.44,3.1-4.94,4.55-10.73,5.84-16.4,3.25-14.21,5.56-28.62,7.9-43,1.1-6.81,2.2-13.62,2.82-20.51,1.33-14.52.63-29.2,3-43.57,2-12.48,6.73-25.28,16.08-34.21,3.06-2.89,7.79-5.16,11-3.05a6.62,6.62,0,0,1,2.66,4C224.57,234.38,217,240.29,213.92,244.52Z" transform="translate(-55.66 -28.99)" fill="#69a1ff"/><path d="M211.92,242.13c-4.73,6.58-8.77,13.78-10.76,21.65-2.58,10.29-1.68,21.1-1.49,31.7a222.65,222.65,0,0,1-19.61,95.2c-2.78,6.22-6.07,12.52-11.47,16.63-1.84-2-3.68-4-5.44-6a2.53,2.53,0,0,1-.35-.87,4,4,0,0,1,.94-2.7c2.93-4.38,6.93-8,9.74-12.44,3.1-4.94,4.55-10.73,5.84-16.4,3.25-14.21,5.56-28.62,7.9-43,1.1-6.81,2.2-13.62,2.82-20.51,1.33-14.52.63-29.2,3-43.57,2-12.48,6.73-25.28,16.08-34.21,3.06-2.89,7.79-5.16,11-3.05a12.71,12.71,0,0,1,.63,1.6C222.53,232,214.94,237.91,211.92,242.13Z" transform="translate(-55.66 -28.99)" fill="url(#linear-gradient-20)"/><path d="M541.22,331c-3.88,0-7.92.3-11.46-1.28-3-1.32-5.19-3.79-7.55-6a54.53,54.53,0,0,0-32.38-14.34c-9.39-.79-18.8.9-28.23,1.3A104.6,104.6,0,0,1,407.08,298a84.8,84.8,0,0,0,42.43,62.79c5.68,3.14,12,5.88,15.59,11.32,6.66,10.19.71,25.53,8.45,34.92,2.92,3.54,7.29,5.51,10.81,8.45,9,7.57,11.29,20.29,16.56,30.82,10.12,20.2,31.23,32.06,51.14,42.72,7.25,3.89,14.65,7.82,22.75,9.27,7.72,1.38,15.72.4,23.28-1.68,30.31-8.31,55.51-39.42,48.86-70.14-5.07-23.4-26.67-40.26-40.61-58.63C590.36,346.74,568.76,330.91,541.22,331Z" transform="translate(-55.66 -28.99)" fill="#69a1ff"/><path d="M541.22,331c-3.88,0-7.92.3-11.46-1.28-3-1.32-5.19-3.79-7.55-6a54.53,54.53,0,0,0-32.38-14.34c-9.39-.79-18.8.9-28.23,1.3A104.6,104.6,0,0,1,407.08,298a84.8,84.8,0,0,0,42.43,62.79c5.68,3.14,12,5.88,15.59,11.32,6.66,10.19.71,25.53,8.45,34.92,2.92,3.54,7.29,5.51,10.81,8.45,9,7.57,11.29,20.29,16.56,30.82,10.12,20.2,31.23,32.06,51.14,42.72,7.25,3.89,14.65,7.82,22.75,9.27,7.72,1.38,15.72.4,23.28-1.68,30.31-8.31,55.51-39.42,48.86-70.14-5.07-23.4-26.67-40.26-40.61-58.63C590.36,346.74,568.76,330.91,541.22,331Z" transform="translate(-55.66 -28.99)" fill="url(#linear-gradient-21)"/><path d="M139.23,347.66a106.33,106.33,0,0,0-2.86,37.81c1.13,10.85,3.94,21.78,2.1,32.54-1.44,8.42-5.65,16.08-9.78,23.56l-18.15,32.81C96.17,453.19,73.28,425.9,83.81,399.6c4.86-12.14,13.55-23.38,23.08-32.22C111.25,363.35,138.59,350.12,139.23,347.66Z" transform="translate(-55.66 -28.99)" fill="#69a1ff"/><path d="M139.23,347.66a106.33,106.33,0,0,0-2.86,37.81c1.13,10.85,3.94,21.78,2.1,32.54-1.44,8.42-5.65,16.08-9.78,23.56l-18.15,32.81C96.17,453.19,73.28,425.9,83.81,399.6c4.86-12.14,13.55-23.38,23.08-32.22C111.25,363.35,138.59,350.12,139.23,347.66Z" transform="translate(-55.66 -28.99)" fill="url(#linear-gradient-22)"/></svg>