<svg xmlns="http://www.w3.org/2000/svg" xmlns:xlink="http://www.w3.org/1999/xlink" xmlns:fi="http://pattern.flaticon.com/" width="700" height="350" phil="#f5be02" fill="#000" fill-opacity="0.27"><rect width="100%" height="100%" opacity="0" fill="#fff"/><defs><g id="c"><path d="M8.533 119.467a8.525 8.525 0 008.533-8.533V25.6a8.539 8.539 0 018.533-8.533h85.333c4.713 0 8.533-3.82 8.533-8.533S115.646 0 110.933 0H25.6C11.468.015.015 11.468 0 25.6v85.333a8.534 8.534 0 008.533 8.534zM486.4 0h-85.333a8.533 8.533 0 000 17.066H486.4a8.538 8.538 0 018.533 8.533v85.333c0 4.713 3.82 8.533 8.533 8.533s8.533-3.82 8.533-8.533V25.6C511.985 11.468 500.532.015 486.4 0zM503.467 392.533a8.525 8.525 0 00-8.533 8.533V486.4a8.538 8.538 0 01-8.533 8.533h-85.333a8.533 8.533 0 000 17.066H486.4c14.132-.015 25.585-11.468 25.6-25.6v-85.333a8.525 8.525 0 00-8.533-8.533zM110.933 494.933H25.6a8.539 8.539 0 01-8.533-8.533v-85.333c0-4.713-3.82-8.533-8.533-8.533S0 396.354 0 401.067V486.4c.015 14.132 11.468 25.585 25.6 25.6h85.333c4.713 0 8.533-3.82 8.533-8.533s-3.82-8.534-8.533-8.534zM503.467 162.133h-86.42a141.233 141.233 0 00-10.097-48.042C389.433 78.517 337.8 25.6 267.342 25.6h-22.683c-70.458 0-122.092 52.917-139.608 88.492a141.207 141.207 0 00-10.095 48.042H8.533c-4.713 0-8.533 3.82-8.533 8.533s3.82 8.533 8.533 8.533H94.08a502.22 502.22 0 00-.194 18.352 28.807 28.807 0 00-4.752-1.11 26.35 26.35 0 00-22.108 7.733 35.383 35.383 0 00-6.475 30.375 204.29 204.29 0 009.591 33.625l1.45 4.175c1.017 2.933 1.875 6.033 2.742 9.142a74.58 74.58 0 009.908 24.117 22.664 22.664 0 0016.55 10.083c.408.025.842.042 1.292.042.356 0 .778-.081 1.155-.103.566 7.799.936 14.797.936 19.903 0 29.183 27.458 64.867 43.692 81.35a369.853 369.853 0 0029.541 25.733 353.78 353.78 0 0128.183 24.5 59.262 59.262 0 0039.067 19.283h22.683a59.262 59.262 0 0039.067-19.283 356.714 356.714 0 0128.167-24.492 368.932 368.932 0 0029.567-25.75c16.225-16.475 43.683-52.158 43.683-81.342 0-5.105.37-12.103.936-19.903.377.022.799.103 1.155.103.45 0 .883-.017 1.292-.042a22.697 22.697 0 0016.575-10.117 74.571 74.571 0 009.883-24.083c.867-3.108 1.725-6.208 2.742-9.142l1.45-4.175a203.858 203.858 0 009.583-33.6 35.367 35.367 0 00-6.492-30.417 26.299 26.299 0 00-22.083-7.717 28.827 28.827 0 00-4.747 1.11c.041-5.924-.01-12.098-.196-18.352h85.544a8.533 8.533 0 100-17.065zM98.083 295.625a61.36 61.36 0 01-7.308-18.717c-.967-3.45-1.925-6.883-3.05-10.142l-1.475-4.225a188.533 188.533 0 01-8.875-30.85 20.412 20.412 0 011.708-15.433 9.699 9.699 0 018.133-2.859 13.007 13.007 0 017.11 3.418c.586 15.309 1.54 26.291 1.665 27.666.048.429 3.432 28.052 5.833 54.143a6.775 6.775 0 01-3.741-3.001zm13.467-84.708c-.105-.167-.252-.29-.359-.454-.275-9.848-.33-20.575-.009-31.262H128v27.766l-16.394 4.097c-.028-.047-.027-.101-.056-.147zm24.983 164.356a82.007 82.007 0 01-15.292-39.74c0-7.931-.781-19.746-1.863-32.313a8.316 8.316 0 00-.135-1.511c-1.796-20.506-4.319-42.543-5.553-52.944l22.843 27.4v99.108zm-18.685-148.185l19.21-4.796 60.371 7.538 5.791 34.704h-54.162l-31.21-37.446zm27.219-20.996V179.2h28.845l16.169 32.515-45.014-5.623zm47.908-26.892h42.506l-28.337 28.494-14.169-28.494zM153.6 291.875l48.16 42.139-18.29 24.386H153.6v-66.525zm11.683 118.073c-1.822-1.689-3.617-3.374-5.258-5.04a160.928 160.928 0 01-6.425-6.955v-22.487h29.871l16.203 21.603-34.391 12.879zm52.475 45.185a369.323 369.323 0 00-29.592-25.767 1511.011 1511.011 0 01-8.193-6.697l29.471-11.036 31.772 57.19a46.533 46.533 0 01-23.458-13.69zm29.709-10.193l-19.633-35.34h19.633v35.34zm0-52.407h-29.87l-19.196-25.6 19.196-25.6h29.87v51.2zm0-68.266h-30.925L167.779 281.6h43.347l36.34 14.522v28.145zm0-46.525l-26.508-10.592-7.021-42.088 33.529-33.715v86.395zM112.078 162.133a122.09 122.09 0 018.289-40.508C135.4 91.1 182.433 42.667 244.658 42.667h22.683c62.225 0 109.258 48.433 124.292 78.958a122.222 122.222 0 018.285 40.508H112.078zM366.933 179.2v26.892l-45.014 5.623 16.169-32.515h28.845zm-102.4 145.067v-28.145l36.341-14.522h43.347l-48.763 42.667h-30.925zm49.067 42.666l-19.196 25.6h-29.87v-51.2h29.87l19.196 25.6zm-49.067-89.191v-86.394l33.529 33.715-7.021 42.088-26.508 10.591zM276.52 179.2h42.506l-14.168 28.494L276.52 179.2zm-11.987 265.74V409.6h19.633l-19.633 35.34zm59.284-15.565a370.647 370.647 0 00-29.575 25.758 46.56 46.56 0 01-23.463 13.698l31.776-57.198 29.47 11.035a1453.778 1453.778 0 01-8.208 6.707zm34.583-31.421a160.508 160.508 0 01-6.417 6.946c-1.644 1.669-3.442 3.356-5.267 5.048l-34.39-12.878 16.203-21.603H358.4v22.487zm0-39.554h-29.871l-18.29-24.386 48.16-42.139V358.4zm4.542-93.867H308.78l5.791-34.704 60.371-7.538 19.21 4.796-31.21 37.446zm29.815 37.173a8.279 8.279 0 00-.135 1.515c-1.083 12.572-1.863 24.383-1.863 32.313a82.005 82.005 0 01-15.292 39.741v-99.11l22.843-27.4c-1.253 10.572-3.765 32.529-5.553 52.941zm8.058-91.25c-.109.167-.258.292-.365.461-.029.046-.028.1-.056.146L384 206.966V179.2h16.816c.324 10.696.272 21.423-.001 31.256zm23.968 2.944a9.707 9.707 0 018.108 2.842 20.34 20.34 0 011.725 15.475 188.127 188.127 0 01-8.867 30.825l-1.475 4.225c-1.125 3.258-2.083 6.692-3.05 10.142a61.443 61.443 0 01-7.283 18.683 6.825 6.825 0 01-3.766 3.034c2.404-26.118 5.796-53.814 5.866-54.426.113-1.279 1.057-12.163 1.638-27.388a13.021 13.021 0 017.104-3.412z" transform="rotate(17.42 -573.138 917.147) scale(.14764)"/></g><g id="g"><path d="M509.026 2.885A9.995 9.995 0 00498.642.583L83.289 148.68c-14.43-8.824-32.733-10.89-49.52-3.939-27.865 11.543-41.146 43.604-29.604 71.471 27.219 65.708 66.518 124.525 116.809 174.816s109.107 89.591 174.816 116.809a54.41 54.41 0 0020.861 4.164c21.475-.001 41.894-12.726 50.609-33.769 5.864-14.158 5.31-29.396-.299-42.48L511.462 13.238a10.002 10.002 0 00-2.436-10.353zM146.179 147.489l44.02-15.694a25.442 25.442 0 016.678 20.752c-.89 6.75-4.354 12.751-9.755 16.896-5.401 4.145-12.089 5.936-18.844 5.049-6.749-.889-12.749-4.352-16.894-9.754-3.819-4.977-5.636-11.049-5.205-17.249zm202.603 323.088c-7.322 17.678-27.664 26.103-45.338 18.779-128.04-53.035-227.763-152.759-280.8-280.799-3.547-8.563-3.547-17.994 0-26.558 3.547-8.563 10.216-15.232 18.779-18.779s17.995-3.547 26.558 0 15.232 10.216 18.779 18.779c22.701 54.807 55.481 103.865 97.429 145.813 41.948 41.948 91.006 74.727 145.813 97.429 17.678 7.321 26.103 27.66 18.78 45.336zm88.843-303.248a25.786 25.786 0 01-2.715-.192c-6.749-.889-12.749-4.353-16.893-9.754-4.145-5.401-5.938-12.094-5.05-18.843 1.835-13.934 14.66-23.776 28.599-21.944 4.3.566 8.337 2.234 11.78 4.771l-15.721 45.962zm22.368-65.406a45.478 45.478 0 00-15.817-5.156c-24.871-3.283-47.764 14.294-51.038 39.163-1.586 12.046 1.614 23.989 9.011 33.629 7.125 9.285 17.325 15.351 28.831 17.201l-19.876 58.119-22.858-17.54c-4.381-3.36-10.66-2.536-14.021 1.846-3.362 4.382-2.535 10.659 1.846 14.021l28.205 21.642-51.694 151.155a54.475 54.475 0 00-14.922-9.241c-105.98-43.899-188.52-126.439-232.417-232.417a54.66 54.66 0 00-5.609-10.26l26.779-9.548c.935 8.068 4.032 15.764 9.105 22.375 7.396 9.64 18.105 15.822 30.151 17.407 2.018.266 4.03.398 6.032.398 9.948 0 19.572-3.25 27.597-9.407 9.641-7.398 15.822-18.105 17.409-30.153a45.412 45.412 0 00-6.768-30.401l124.307-44.322 4.711 11.374a10.005 10.005 0 009.243 6.176 9.98 9.98 0 003.823-.764c5.102-2.113 7.525-7.964 5.412-13.066l-4.326-10.445 132.719-47.322-25.835 75.536z" transform="matrix(.11719 0 0 .11719 138 312)"/><path d="M108 268.276c-.03-.047-.113-.174-.145-.22-3.062-4.593-9.259-5.826-13.854-2.767-4.587 3.054-5.831 9.253-2.795 13.848a9.995 9.995 0 0013.789 2.958c4.646-2.987 5.991-9.174 3.005-13.819zM92.791 243.433a473.307 473.307 0 01-26.036-53.147c-2.113-5.104-7.966-7.524-13.065-5.411-5.103 2.113-7.525 7.963-5.411 13.065a493.223 493.223 0 0027.14 55.401 9.997 9.997 0 0013.64 3.733c4.797-2.737 6.469-8.844 3.732-13.641zM312.933 127.987a45.819 45.819 0 00-5.983-.394c-22.717 0-42.087 17.005-45.055 39.555-3.274 24.868 14.293 47.764 39.161 51.038 1.982.262 3.995.394 5.983.394 22.716 0 42.086-17.005 45.055-39.557 3.273-24.867-14.294-47.762-39.161-51.036zm19.333 48.426c-1.664 12.637-12.509 22.166-25.227 22.166-1.118 0-2.253-.074-3.372-.222-13.935-1.835-23.777-14.664-21.943-28.599 1.664-12.636 12.508-22.164 25.226-22.164 1.118 0 2.253.074 3.372.222 13.934 1.836 23.778 14.664 21.944 28.597zM310.331 252.374a45.83 45.83 0 00-5.983-.394c-22.717 0-42.087 17.005-45.055 39.556-1.587 12.047 1.613 23.989 9.01 33.63 7.396 9.64 18.104 15.822 30.151 17.409 1.981.261 3.993.392 5.98.392 22.717 0 42.088-17.005 45.057-39.557 3.275-24.866-14.293-47.76-39.16-51.036zm19.333 48.427c-1.664 12.637-12.51 22.166-25.228 22.166a25.96 25.96 0 01-3.37-.222c-6.75-.89-12.75-4.354-16.895-9.755-4.145-5.401-5.938-12.093-5.049-18.844 1.664-12.636 12.509-22.165 25.226-22.165 1.118 0 2.253.074 3.372.222 13.933 1.835 23.777 14.664 21.944 28.598zM244.375 210.946l-30.736-4.047c-5.473-.727-10.499 3.133-11.22 8.608-.722 5.476 3.133 10.499 8.608 11.22l30.736 4.047c.443.059.883.087 1.318.087 4.941 0 9.239-3.663 9.901-8.695.723-5.475-3.131-10.499-8.607-11.22zM228.79 284.743l-2.714-20.624c-.721-5.476-5.743-9.332-11.219-8.609-5.476.721-9.33 5.743-8.609 11.219l2.715 20.624c.662 5.033 4.959 8.696 9.901 8.696.435 0 .875-.028 1.317-.087 5.476-.721 9.33-5.743 8.609-11.219z" transform="matrix(.11719 0 0 .11719 138 312)"/></g><g id="i"><path d="M394.655 202.654H95.988c-17.643 0-32 14.357-32 32v21.333c0 76.117 42.048 145.152 109.717 180.16 5.227 2.688 11.669.661 14.379-4.587 2.688-5.227.661-11.669-4.587-14.379-60.544-31.317-98.176-93.077-98.176-161.195v-21.333c0-5.888 4.779-10.667 10.667-10.667h298.667c5.888 0 10.667 4.779 10.667 10.667v21.333c0 68.117-37.632 129.877-98.197 161.173-5.248 2.709-7.275 9.152-4.587 14.379a10.69 10.69 0 009.493 5.781c1.664 0 3.328-.384 4.885-1.195 67.691-34.987 109.739-104 109.739-180.139v-21.333c0-17.641-14.358-31.998-32-31.998z" transform="matrix(.13226 -.03527 .03527 .13226 201.144 324.163)"/><path d="M489.865 422.558c-1.664-3.989-5.547-6.592-9.856-6.592H10.676c-4.309 0-8.192 2.603-9.856 6.592a10.643 10.643 0 002.304 11.627l23.915 23.936c14.123 14.101 32.853 21.867 52.8 21.867h330.965c19.947 0 38.699-7.765 52.843-21.867l23.915-23.936a10.644 10.644 0 002.303-11.627zm-41.322 20.48c-10.069 10.069-23.488 15.616-37.717 15.616H79.839c-14.229 0-27.648-5.547-37.717-15.616l-5.717-5.717H454.26l-5.717 5.717zM491.359 253.022c-28.736-18.475-74.645 1.579-79.787 3.904-5.355 2.453-7.744 8.768-5.291 14.144a10.657 10.657 0 0014.144 5.291c10.283-4.672 43.264-15.744 59.392-5.355 7.275 4.672 10.837 13.739 10.837 27.648 0 42.709-86.144 68.523-119.403 74.88l-7.552 1.493c-5.781 1.131-9.536 6.741-8.405 12.523 1.003 5.077 5.461 8.597 10.453 8.597.683 0 1.365-.064 2.069-.213l7.488-1.472c5.589-1.067 136.683-26.773 136.683-95.808.001-21.461-6.953-36.8-20.628-45.632zM328.372 113.31c17.344-21.675 17.344-55.616 0-77.291a10.634 10.634 0 00-14.997-1.664 10.655 10.655 0 00-1.664 14.997c10.987 13.717 10.987 36.907-.021 50.667-17.365 21.675-17.365 55.616 0 77.291a10.626 10.626 0 008.341 4.011c2.325 0 4.693-.768 6.656-2.347 4.608-3.691 5.355-10.411 1.664-14.997-11.008-13.718-11.008-36.907.021-50.667zM264.287 113.31c17.365-21.675 17.365-55.616 0-77.291-3.669-4.608-10.389-5.355-14.997-1.664-4.608 3.691-5.355 10.411-1.664 14.997 11.008 13.717 11.008 36.907-.021 50.667-17.344 21.675-17.344 55.616 0 77.291a10.626 10.626 0 008.341 4.011c2.325 0 4.672-.768 6.656-2.347a10.655 10.655 0 001.664-14.997c-10.987-13.718-10.987-36.907.021-50.667zM200.372 113.331c17.344-21.675 17.344-55.616 0-77.291a10.632 10.632 0 00-14.997-1.664c-4.587 3.669-5.333 10.389-1.664 14.976 10.987 13.717 10.987 36.907-.021 50.667-17.365 21.675-17.365 55.616 0 77.291a10.626 10.626 0 008.341 4.011 10.72 10.72 0 006.656-2.325c4.608-3.691 5.355-10.411 1.664-14.997-11.008-13.74-11.008-36.908.021-50.668z" transform="matrix(.13226 -.03527 .03527 .13226 201.144 324.163)"/></g><g id="k"><path d="M167.29 272.133a6.972 6.972 0 01-4.532-1.672l-45.297-38.57a7 7 0 010-10.66l45.297-38.57a7 7 0 019.867.788c2.504 2.946 2.152 7.363-.793 9.867l-39.035 33.243 39.035 33.242a7 7 0 01-4.543 12.332zm0 0M256.71 272.133c-1.98 0-3.948-.836-5.331-2.465a7 7 0 01.789-9.867l39.035-33.242-39.035-33.243a7 7 0 019.074-10.656l45.297 38.57a7 7 0 010 10.66l-45.297 38.57a6.972 6.972 0 01-4.531 1.673zm0 0M195.965 301.063a7.002 7.002 0 01-6.86-8.445l28.23-134.036a7 7 0 0113.7 2.887l-28.23 134.035a7.001 7.001 0 01-6.84 5.559zm0 0" transform="matrix(.18747 -.03537 .03537 .18747 -40.359 308.903)"/><path d="M377 374.086H47c-25.914 0-47-21.082-47-47V47C0 21.086 21.086 0 47 0h330c25.914 0 47 21.086 47 47v280.086c0 25.918-21.086 47-47 47zM47 14c-18.195 0-33 14.805-33 33v280.086c0 18.195 14.805 33 33 33h330c18.195 0 33-14.805 33-33V47c0-18.195-14.805-33-33-33zm0 0" transform="matrix(.18747 -.03537 .03537 .18747 -40.359 308.903)"/><path d="M417 112.09H7a7.001 7.001 0 010-14h410a7.001 7.001 0 010 14zm0 0M119.602 78.594c-12.211 0-22.153-9.942-22.153-22.153 0-12.214 9.942-22.152 22.153-22.152 12.214 0 22.152 9.938 22.152 22.152 0 12.211-9.938 22.153-22.152 22.153zm0-30.305c-4.493 0-8.153 3.656-8.153 8.152s3.66 8.153 8.153 8.153c4.496 0 8.152-3.656 8.152-8.153s-3.656-8.152-8.152-8.152zm0 0M51.54 78.379c-12.216 0-22.153-9.938-22.153-22.152 0-12.215 9.937-22.153 22.152-22.153 12.215 0 22.152 9.938 22.152 22.153 0 12.214-9.937 22.152-22.152 22.152zm0-30.305c-4.493 0-8.153 3.66-8.153 8.153 0 4.496 3.66 8.152 8.152 8.152 4.496 0 8.152-3.656 8.152-8.152 0-4.493-3.656-8.153-8.152-8.153zm0 0M187.664 78.805c-12.21 0-22.148-9.938-22.148-22.153 0-12.21 9.937-22.148 22.148-22.148 12.215 0 22.152 9.937 22.152 22.148 0 12.215-9.937 22.153-22.152 22.153zm0-30.305c-4.492 0-8.148 3.656-8.148 8.152s3.656 8.153 8.148 8.153c4.496 0 8.152-3.657 8.152-8.153s-3.656-8.152-8.152-8.152zm0 0" transform="matrix(.18747 -.03537 .03537 .18747 -40.359 308.903)"/></g><g id="m"><path d="M412.113 170.747c-6.637 0-12.02 5.381-12.02 12.02v75.104c0 79.452-64.639 144.09-144.092 144.09S111.91 337.321 111.91 257.87v-75.104c0-6.639-5.383-12.02-12.02-12.02-6.639 0-12.02 5.381-12.02 12.02v75.104c0 88.666 68.993 161.512 156.111 167.696v62.395h-62.174c-6.637 0-12.02 5.381-12.02 12.02 0 6.639 5.382 12.02 12.02 12.02h148.386c6.637 0 12.02-5.381 12.02-12.02 0-6.639-5.382-12.02-12.02-12.02H268.02v-62.395c87.119-6.184 156.111-79.031 156.111-167.696v-75.104c.002-6.638-5.381-12.019-12.018-12.019z" transform="rotate(-27.98 422.03 -355.35) scale(.11831)"/><path d="M264.011 0h-16.02c-54.949 0-99.653 44.704-99.653 99.653V265.88c0 54.949 44.704 99.653 99.653 99.653h16.02c54.949 0 99.653-44.704 99.653-99.653V99.653C363.664 44.704 318.96 0 264.011 0zm75.614 130.853h-43.572c-6.639 0-12.02 5.381-12.02 12.02 0 6.639 5.381 12.02 12.02 12.02h43.572v33.458h-43.572c-6.639 0-12.02 5.381-12.02 12.02s5.381 12.02 12.02 12.02h43.572v33.46h-43.572c-6.639 0-12.02 5.381-12.02 12.02s5.381 12.02 12.02 12.02h43.464c-2.091 39.836-35.157 71.603-75.505 71.603h-16.02c-40.348 0-73.414-31.767-75.505-71.603h43.464c6.639 0 12.02-5.381 12.02-12.02s-5.381-12.02-12.02-12.02h-43.572v-33.46h43.572c6.639 0 12.02-5.381 12.02-12.02s-5.381-12.02-12.02-12.02h-43.572v-33.458h43.572c6.639 0 12.02-5.381 12.02-12.02 0-6.639-5.381-12.02-12.02-12.02h-43.572v-31.2c0-29.964 17.52-55.914 42.854-68.143v33.983c0 6.639 5.382 12.02 12.02 12.02s12.02-5.381 12.02-12.02V24.558c2.863-.331 30.595-.331 33.458 0v40.935c0 6.639 5.381 12.02 12.02 12.02 6.637 0 12.02-5.381 12.02-12.02V31.51c25.334 12.229 42.854 38.177 42.854 68.142v31.201z" transform="rotate(-27.98 422.03 -355.35) scale(.11831)"/></g><g id="o"><path d="M383.071 148.928c-3.905-3.904-10.237-3.904-14.143 0l-20 20c-3.905 3.905-3.905 10.237 0 14.143 3.907 3.906 10.238 3.905 14.143 0l20-20c3.905-3.905 3.905-10.237 0-14.143zM143.071 148.928c-3.905-3.904-10.237-3.904-14.143 0l-20 20c-3.905 3.905-3.905 10.237 0 14.143 3.907 3.906 10.238 3.905 14.143 0l20-20c3.905-3.905 3.905-10.237 0-14.143zM333.071 108.928c-3.905-3.904-10.237-3.904-14.143 0l-20 20c-3.905 3.905-3.905 10.237 0 14.143 3.907 3.906 10.238 3.905 14.143 0l20-20c3.905-3.905 3.905-10.237 0-14.143zM213.071 108.928c-3.905-3.904-10.237-3.904-14.143 0l-20 20c-3.905 3.905-3.905 10.237 0 14.143 3.907 3.906 10.238 3.905 14.143 0l20-20c3.905-3.905 3.905-10.237 0-14.143zM263.071 148.928c-3.905-3.904-10.237-3.904-14.143 0l-20 20c-3.905 3.905-3.905 10.237 0 14.143 3.907 3.906 10.238 3.905 14.143 0l20-20c3.905-3.905 3.905-10.237 0-14.143z" transform="matrix(.11719 0 0 .11719 261 39)"/><path d="M512 356c0-16.542-13.458-30-30-30h-10v-32.23c.412-.358.832-.701 1.237-1.07 6.491-5.917 20.049-9.7 28.889-9.812 5.522-.069 9.943-4.603 9.873-10.125-.069-5.479-4.532-9.874-9.997-9.874l-.128.001c-8.581.108-19.982 2.386-29.874 7.063V243.74c12.176-4.983 20.271-17.519 18.533-31.435C478.737 117.496 397.686 46 302 46h-92c-95.686 0-176.737 71.496-188.533 166.301-1.733 13.875 6.307 26.437 18.533 31.44v25.771c-9.929-4.498-21.357-6.748-30.131-6.622-5.522.072-9.94 4.608-9.868 10.131.072 5.478 4.535 9.868 9.997 9.868l.134-.001c8.942-.137 22.822 3.599 29.592 9.774.09.083.186.161.277.243V326H30c-16.574 0-30 13.424-30 30 0 14.865 10.87 27.233 25.078 29.589-2.337 6.169-2.505 12.909-.338 19.313C37.134 441.446 71.397 466 110 466h292c38.603 0 72.866-24.554 85.263-61.104 2.165-6.398 1.997-13.135-.339-19.303C500.864 383.301 512 371.17 512 356zM41.313 214.774C51.867 129.959 124.386 66 210 66h92c85.614 0 158.133 63.959 168.687 148.779.722 5.779-3.787 10.811-9.356 11.184-.066.004-.132.01-.198.016a5.866 5.866 0 01-.513.021H51.38c-5.89 0-10.82-5.186-10.067-11.226zm371.925 63.146c-21.975-20.039-51.502-20.039-73.477 0-14.349 13.084-32.175 13.084-46.523 0-21.975-20.039-51.502-20.039-73.477 0-14.349 13.084-32.175 13.084-46.523 0-21.975-20.038-51.502-20.04-73.479.002-12.161 11.098-26.73 12.859-39.759 5.053V246h392v37.555c-12.759 7.099-26.953 5.134-38.762-5.635zM452 305.243V326H60v-21.057c5.407 1.871 10.956 2.807 16.5 2.806 12.905 0 25.776-5.048 36.739-15.051 14.348-13.084 32.175-13.084 46.523 0 21.975 20.041 51.503 20.04 73.477 0 14.349-13.084 32.176-13.084 46.523 0 21.975 20.041 51.503 20.04 73.477 0 14.348-13.085 32.175-13.083 46.523 0 15.297 13.952 34.503 18.24 52.238 12.545zm16.32 93.236C458.68 426.902 432.028 446 402 446H110c-30.028 0-56.68-19.098-66.317-47.515C41.608 392.355 46.901 386 53.46 386h405.08c6.583 0 11.842 6.385 9.78 12.479zM482 366H30c-5.514 0-10-4.486-10-10 0-5.521 4.479-10 10-10h452c5.514 0 10 4.486 10 10 0 5.521-4.479 10-10 10z" transform="matrix(.11719 0 0 .11719 261 39)"/></g><g id="s"><path d="M29.893.402a3.029 3.029 0 00-3.09.044.929.929 0 00-.13.093L13.122 12.002H2.489a1 1 0 00-1 1v19a1.002 1.002 0 001 1l10.61-.005 13.543 12.44c.05.046.104.086.161.12a3.055 3.055 0 001.582.446 3.07 3.07 0 001.508-.402 3.124 3.124 0 001.596-2.756V3.158A3.125 3.125 0 0029.893.402zm-.404 42.443c0 .431-.217.81-.579 1.015a1.049 1.049 0 01-1 .026L14.489 31.557v-4.556a1 1 0 10-2 0v3.996l-9 .004v-17h9v4a1 1 0 102 0v-4.536l13.405-11.34c.461-.242.86-.07 1.016.018.362.205.579.584.579 1.015v39.687zM34.766 9.54a1 1 0 00-.554 1.922c4.889 1.413 8.304 5.953 8.304 11.04s-3.415 9.627-8.304 11.04a1 1 0 00.554 1.922c5.74-1.66 9.749-6.99 9.749-12.962S40.506 11.2 34.766 9.54z" transform="matrix(1.0161 -.50805 .50805 1.0161 -18.057 247.313)"/></g><g id="w"><path d="M502.008 333.82H485.46a120.912 120.912 0 00-10.36-25.058l11.688-11.684a9.996 9.996 0 000-14.133l-33.875-33.875c-3.902-3.902-10.226-3.902-14.133 0l-11.648 11.649a120.975 120.975 0 00-25.094-10.418v-16.45c0-5.519-4.476-9.992-9.992-9.992H344.14a9.99 9.99 0 00-9.993 9.993v16.41a120.838 120.838 0 00-25.144 10.406l-11.598-11.598a9.987 9.987 0 00-7.066-2.925c-.86 0-1.707.12-2.527.335v-46.82c0-5.52-4.473-9.996-9.993-9.996h-16.547a120.969 120.969 0 00-10.359-25.055l11.688-11.687c3.902-3.902 3.902-10.23 0-14.133l-33.875-33.871c-3.903-3.902-10.227-3.902-14.133 0l-11.649 11.648a120.762 120.762 0 00-25.093-10.418V89.695c0-5.52-4.477-9.992-9.993-9.992h-47.906c-5.516 0-9.992 4.473-9.992 9.992v16.41c-8.758 2.516-17.168 6-25.145 10.41L73.22 104.919a9.99 9.99 0 00-14.133 0L25.21 138.789c-3.902 3.902-3.902 10.23 0 14.133l11.598 11.598a121.138 121.138 0 00-10.407 25.144H9.992c-5.515 0-9.992 4.477-9.992 9.996v47.902c0 5.52 4.477 9.993 9.992 9.993h16.45a120.886 120.886 0 0010.417 25.093l-11.648 11.649a10.01 10.01 0 00-2.926 7.066c0 2.653 1.055 5.192 2.926 7.067l33.875 33.875c3.902 3.902 10.23 3.902 14.133 0l11.687-11.688a120.969 120.969 0 0025.055 10.36v16.546c0 5.52 4.477 9.993 9.992 9.993h47.906a9.99 9.99 0 009.993-9.993v-16.586a121.05 121.05 0 0025.007-10.37l11.735 11.738a10.01 10.01 0 007.066 2.925c.863 0 1.707-.12 2.528-.335v46.82c0 5.52 4.476 9.996 9.992 9.996h16.449a120.975 120.975 0 0010.418 25.094l-11.649 11.648a9.996 9.996 0 000 14.133l33.875 33.871c3.903 3.902 10.23 3.902 14.133 0l11.688-11.687a120.969 120.969 0 0025.054 10.359v16.547c0 5.52 4.477 9.992 9.993 9.992h47.906a9.99 9.99 0 009.992-9.992V485.09a120.824 120.824 0 0025.008-10.367l11.734 11.734c3.903 3.902 10.23 3.906 14.133 0l33.875-33.871a9.994 9.994 0 002.926-7.066 9.98 9.98 0 00-2.926-7.067l-11.734-11.738a121.094 121.094 0 0010.367-25.004h16.586c5.52 0 9.996-4.477 9.996-9.996v-47.902c-.004-5.52-4.48-9.993-9.996-9.993zm-242.57-22.226a120.715 120.715 0 00-8.848 22.226h-13.38zm-7.333-31.36c3.801-7.238 6.856-14.82 9.125-22.68h13.56zm-40.613 30.7a9.996 9.996 0 00-12.472-1.34 101.345 101.345 0 01-33.293 13.804 9.993 9.993 0 00-7.864 9.762v14.367H129.95v-14.336a9.994 9.994 0 00-7.879-9.765 101.37 101.37 0 01-33.34-13.781 9.99 9.99 0 00-12.464 1.343l-10.114 10.117-19.742-19.742 10.09-10.086a9.996 9.996 0 001.336-12.476 101.218 101.218 0 01-13.856-33.367 9.997 9.997 0 00-9.765-7.864H19.988v-27.918h14.2a9.994 9.994 0 009.765-7.875 101.263 101.263 0 0113.832-33.418 9.995 9.995 0 00-1.344-12.468l-10.03-10.036 19.741-19.738 10.032 10.031a10 10 0 0012.472 1.34 101.243 101.243 0 0133.414-13.832 9.995 9.995 0 007.88-9.77V99.692h27.913v14.227c0 4.7 3.274 8.766 7.864 9.766a101.273 101.273 0 0133.37 13.855 10.001 10.001 0 0012.477-1.336l10.086-10.086 19.742 19.738-10.117 10.118a9.995 9.995 0 00-1.347 12.46 101.33 101.33 0 0113.785 33.34 9.994 9.994 0 009.765 7.88h14.336v27.913h-14.367a9.993 9.993 0 00-9.762 7.868 101.325 101.325 0 01-13.804 33.289 9.996 9.996 0 001.34 12.472l10.171 10.168-19.742 19.742zm280.52 70.789h-14.367a9.993 9.993 0 00-9.762 7.863 101.38 101.38 0 01-13.805 33.293 9.99 9.99 0 001.34 12.469l10.172 10.172-19.742 19.738-10.172-10.168a9.99 9.99 0 00-12.469-1.34 101.288 101.288 0 01-33.293 13.8 9.997 9.997 0 00-7.863 9.766v14.368h-27.918v-14.336a9.99 9.99 0 00-7.875-9.766 101.295 101.295 0 01-33.34-13.785 9.996 9.996 0 00-12.465 1.348l-10.113 10.113-19.742-19.738 10.086-10.086a9.996 9.996 0 001.336-12.48 101.293 101.293 0 01-13.852-33.368 9.997 9.997 0 00-9.766-7.863h-14.23v-27.918h14.2a9.99 9.99 0 009.765-7.875 101.346 101.346 0 0113.832-33.418 9.99 9.99 0 00-1.34-12.469l-10.031-10.035 19.742-19.738 10.031 10.03a9.99 9.99 0 0012.469 1.34 101.346 101.346 0 0133.418-13.831 9.99 9.99 0 007.875-9.766v-14.2h27.918v14.231a9.99 9.99 0 007.863 9.762 101.385 101.385 0 0133.367 13.855 9.99 9.99 0 0012.477-1.336l10.09-10.085 19.738 19.742-10.113 10.113a9.995 9.995 0 00-1.348 12.46 101.35 101.35 0 0113.785 33.345 9.99 9.99 0 009.766 7.875h14.336zm0 0" transform="rotate(21.804 -14.937 484.792) scale(.11937)"/><path d="M325.695 335.36a9.959 9.959 0 007.067-2.93l.12-.121c3.923-3.883 3.95-10.211.067-14.133-3.886-3.922-10.215-3.95-14.133-.067l-.191.188c-3.902 3.902-3.902 10.23 0 14.137a9.98 9.98 0 007.07 2.925zm0 0" transform="rotate(21.804 -14.937 484.792) scale(.11937)"/><path d="M351.059 299.906c-5.356 1.34-8.61 6.766-7.27 12.121 1.34 5.356 6.77 8.606 12.117 7.27 17.223-4.313 34.989.601 47.52 13.133 19.484 19.484 19.484 51.183 0 70.664-9.438 9.441-21.985 14.636-35.332 14.636-13.344 0-25.895-5.195-35.332-14.636-11.754-11.754-16.883-28.535-13.719-44.883 1.05-5.418-2.492-10.664-7.914-11.711-5.418-1.047-10.66 2.492-11.707 7.91-4.434 22.88 2.75 46.36 19.207 62.817 13.215 13.214 30.781 20.492 49.465 20.492 18.687 0 36.254-7.278 49.465-20.492 27.277-27.274 27.277-71.657 0-98.93-17.282-17.281-42.762-24.328-66.5-18.39zm0 0" transform="rotate(21.804 -14.937 484.792) scale(.11937)"/><path d="M398.074 367.762c0-16.532-13.449-29.98-29.98-29.98s-29.98 13.448-29.98 29.98 13.449 29.98 29.98 29.98 29.98-13.449 29.98-29.98zm-39.972 0c0-5.508 4.48-9.992 9.992-9.992s9.992 4.484 9.992 9.992c0 5.511-4.48 9.996-9.992 9.996s-9.992-4.485-9.992-9.996zm0 0M179.445 188.484a9.913 9.913 0 007.004 2.887 9.971 9.971 0 007.106-2.969c3.886-3.918 3.84-10.27-.078-14.156l-.133-.129c-3.922-3.887-10.227-3.84-14.11.078-3.89 3.918-3.84 10.27.078 14.157zm0 0" transform="rotate(21.804 -14.937 484.792) scale(.11937)"/><path d="M202.262 206.547c-5.48.652-9.395 5.625-8.742 11.105 1.828 15.336-3.375 30.387-14.282 41.29-19.48 19.48-51.18 19.484-70.664 0-9.437-9.438-14.636-21.985-14.636-35.333s5.199-25.894 14.636-35.332c11.297-11.297 27.469-16.53 43.278-14.004 5.449.872 10.574-2.84 11.445-8.289s-2.84-10.574-8.29-11.449c-22.105-3.535-44.75 3.793-60.566 19.61-13.214 13.21-20.488 30.78-20.488 49.464 0 18.688 7.274 36.254 20.488 49.465 13.637 13.64 31.547 20.457 49.465 20.457 17.91-.004 35.828-6.82 49.465-20.457 15.266-15.265 22.555-36.328 19.996-57.789-.656-5.48-5.644-9.387-11.105-8.738zm0 0" transform="rotate(21.804 -14.937 484.792) scale(.11937)"/><path d="M113.926 223.61c0 16.53 13.449 29.98 29.98 29.98s29.98-13.45 29.98-29.98-13.448-29.981-29.98-29.981-29.98 13.45-29.98 29.98zm39.972 0c0 5.511-4.48 9.992-9.992 9.992s-9.992-4.48-9.992-9.993 4.48-9.992 9.992-9.992 9.992 4.48 9.992 9.992zm0 0M502.008 76.68H482.3a89.208 89.208 0 00-11.262-19.47l9.863-17.081c2.762-4.781 1.121-10.895-3.656-13.652L433.711 1.344a9.973 9.973 0 00-7.582-1A10 10 0 00420.059 5l-9.86 17.082a91.36 91.36 0 00-22.484 0L377.855 5c-2.761-4.781-8.875-6.418-13.652-3.66l-43.535 25.137a10.006 10.006 0 00-4.656 6.066 10.003 10.003 0 001 7.582l9.863 17.082a89.534 89.534 0 00-11.258 19.469h-19.71c-5.516 0-9.993 4.476-9.993 9.996v50.266c0 5.519 4.477 9.996 9.992 9.996h19.711a89.534 89.534 0 0011.258 19.468l-9.863 17.082a10.006 10.006 0 00-1 7.582 10.006 10.006 0 004.656 6.067l43.535 25.137a9.99 9.99 0 0013.652-3.66l9.86-17.079c7.445.922 15.039.922 22.484 0l9.863 17.078a9.977 9.977 0 006.067 4.657 9.987 9.987 0 007.582-.996l43.535-25.137c4.781-2.758 6.418-8.871 3.656-13.649l-9.859-17.082a89.534 89.534 0 0011.258-19.468h19.707c5.52 0 9.992-4.477 9.992-9.996V86.672c0-5.52-4.477-9.992-9.992-9.992zm-9.996 50.265h-16.637a9.993 9.993 0 00-9.492 6.875c-3.04 9.243-7.887 17.625-14.41 24.918a9.99 9.99 0 00-1.203 11.66l8.328 14.426-26.223 15.14-8.32-14.41a9.987 9.987 0 00-10.688-4.788 71.452 71.452 0 01-28.816 0 9.998 9.998 0 00-10.688 4.789l-8.32 14.41-26.223-15.14 8.328-14.427a9.991 9.991 0 00-1.203-11.66c-6.523-7.293-11.37-15.675-14.41-24.918a9.993 9.993 0 00-9.492-6.875h-16.64V96.668h16.64a9.993 9.993 0 009.492-6.875c3.04-9.242 7.887-17.625 14.41-24.918a9.99 9.99 0 001.203-11.66l-8.328-14.426 26.223-15.14 8.32 14.41a9.998 9.998 0 0010.688 4.789 71.452 71.452 0 0128.816 0 9.995 9.995 0 0010.688-4.79l8.32-14.41 26.223 15.141-8.328 14.426a9.991 9.991 0 001.203 11.66c6.523 7.293 11.37 15.676 14.41 24.918a9.993 9.993 0 009.492 6.875h16.637zm0 0" transform="rotate(21.804 -14.937 484.792) scale(.11937)"/><path d="M398.957 65.703c-25.422 0-46.102 20.684-46.102 46.102 0 25.422 20.68 46.101 46.102 46.101s46.102-20.68 46.102-46.101c0-25.418-20.68-46.102-46.102-46.102zm0 72.219c-14.398 0-26.113-11.715-26.113-26.117 0-14.399 11.715-26.114 26.113-26.114s26.117 11.715 26.117 26.114c0 14.402-11.719 26.117-26.117 26.117zm0 0" transform="rotate(21.804 -14.937 484.792) scale(.11937)"/></g><g id="y"><path d="M248 304c-22.055 0-40 17.945-40 40s17.945 40 40 40 40-17.945 40-40-17.945-40-40-40zm0 64c-13.23 0-24-10.77-24-24s10.77-24 24-24 24 10.77 24 24-10.77 24-24 24zm0 0M240 32h64v16h-64zm0 0M240 64h64v16h-64zm0 0M192 96h112v16H192zm0 0M192 128h112v16H192zm0 0M192 160h112v16H192zm0 0" transform="rotate(18.742 -341.947 115.063) scale(.16861)"/><path d="M496 256v-64H384v64h48v80h-96v-13.77l-19.64-6.55 9.257-18.512-30.785-30.785-18.52 9.265L269.77 256H256v-48h80v-96h96v44.687l-18.344-18.343-11.312 11.312L440 187.312l37.656-37.656-11.312-11.312L448 156.687V96H336V0H212.687L160 52.687V96H48v60.687l-18.344-18.343-11.312 11.312L56 187.312l37.656-37.656-11.312-11.312L64 156.687V112h96v96h80v48h-13.77l-6.542 19.648-18.52-9.265-30.785 30.785 9.258 18.512L160 322.23V336H64v-80h48v-64H0v64h48v129.137c-13.77 3.574-24 16-24 30.863 0 17.648 14.352 32 32 32s32-14.352 32-32c0-14.863-10.23-27.29-24-30.863V352h48v97.473c-9.29 3.312-16 12.113-16 22.527 0 13.23 10.77 24 24 24s24-10.77 24-24c0-10.414-6.71-19.215-16-22.527V352h32v13.77l19.64 6.55-9.257 18.512 30.785 30.785 18.52-9.265L226.23 432h43.532l6.543-19.648 18.52 9.265 30.784-30.785-9.257-18.512L336 365.77V352h32v97.473c-9.29 3.312-16 12.113-16 22.527 0 13.23 10.77 24 24 24s24-10.77 24-24c0-10.414-6.71-19.215-16-22.527V352h48v33.137c-13.77 3.574-24 16-24 30.863 0 17.648 14.352 32 32 32s32-14.352 32-32c0-14.863-10.23-27.29-24-30.863V256zM208 27.312V48h-20.688zM176 64h48V16h96v176H176zM16 208h80v32H16zm56 208c0 8.824-7.176 16-16 16s-16-7.176-16-16 7.176-16 16-16 16 7.176 16 16zm48 64c-4.414 0-8-3.594-8-8s3.586-8 8-8 8 3.594 8 8-3.586 8-8 8zm200-125.77l-18.352 6.122-1.351 3.527c-.402 1.023-.8 2.043-1.242 3.031l-1.551 3.465 8.648 17.297-14.472 14.473-17.297-8.649-3.461 1.55c-.985.442-1.985.84-3 1.227l-3.563 1.344L258.23 416h-20.468l-6.13-18.383-3.562-1.344a56.084 56.084 0 01-3-1.226l-3.46-1.55-17.298 8.648-14.472-14.473 8.648-17.297-1.55-3.465c-.45-1-.84-2.008-1.243-3.031l-1.351-3.527L176 354.23v-20.468l18.352-6.121 1.351-3.528c.402-1.023.8-2.043 1.242-3.035l1.551-3.46-8.648-17.298 14.472-14.472 17.297 8.648 3.461-1.55c.984-.442 1.984-.84 3-1.227l3.563-1.344L237.77 272h20.468l6.13 18.383 3.562 1.344c1.015.386 2.015.785 3 1.226l3.46 1.55 17.298-8.648 14.472 14.473-8.648 17.297 1.55 3.465c.45 1 .84 2.008 1.243 3.031l1.351 3.527L320 333.77zM376 480c-4.414 0-8-3.594-8-8s3.586-8 8-8 8 3.594 8 8-3.586 8-8 8zm80-64c0 8.824-7.176 16-16 16s-16-7.176-16-16 7.176-16 16-16 16 7.176 16 16zm-56-208h80v32h-80zm0 0" transform="rotate(18.742 -341.947 115.063) scale(.16861)"/></g><g id="A"><path d="M414.61 211.775A23.956 23.956 0 00392 195.86a23.96 23.96 0 00-22.526 16H320v-32h32a7.998 7.998 0 008-7.996V138.386c12.497-4.418 19.047-18.13 14.629-30.628-4.418-12.497-18.13-19.047-30.628-14.629s-19.047 18.13-14.629 30.628A24.002 24.002 0 00344 138.386v25.475h-24v-16a7.998 7.998 0 00-7.996-8H296V98.385c12.497-4.418 19.047-18.13 14.629-30.628-4.418-12.497-18.13-19.047-30.628-14.629-12.497 4.418-19.047 18.13-14.629 30.628A24.002 24.002 0 00280 98.385v41.475h-32V12.141a7.998 7.998 0 00-7.996-8H240c-98.691 0-176 71.453-176 162.664 0 43.328 17.199 100.695 44.891 149.703 4.973 8.797 11.461 18.047 18.328 27.844 14.521 20.699 30.681 43.976 32.438 64.238a22.74 22.74 0 00-9.61 18.988 23.765 23.765 0 005.295 14.853 24.666 24.666 0 00-7.342 17.71c.014 13.249 10.751 23.986 24 24h136c13.339-.083 24.086-10.963 24.003-24.302l-.003-.261a23.89 23.89 0 00-7.363-17.232 24.7 24.7 0 005.316-15.331c-.024-12.671-10.315-22.923-22.986-22.899-.338.001-.676.009-1.014.024H248V251.859h16v24a7.998 7.998 0 007.996 8H296v9.474c-12.497 4.418-19.046 18.131-14.627 30.627s18.131 19.046 30.627 14.627c12.497-4.418 19.046-18.131 14.627-30.627A23.998 23.998 0 00312 293.333v-17.474a7.998 7.998 0 00-7.996-8H280v-16h32a7.998 7.998 0 008-7.996v-16.004h49.475c4.442 12.464 18.146 18.967 30.61 14.525 12.463-4.441 18.966-18.145 14.525-30.609zM352 107.859a8 8 0 11-8 8 8.009 8.009 0 018-8zM140.32 335.164c-6.641-9.469-12.91-18.406-17.5-26.531C96.809 262.594 80 206.922 80 166.805c0-79.781 66.137-142.797 152-146.492v55.888a138.78 138.78 0 00-6.609.636 7.997 7.997 0 00-6.859 6.289l-2.438 11.594c-2.008.477-4.01 1.016-6.008 1.617l-7.973-8.891a7.989 7.989 0 00-9.094-2.023 120.385 120.385 0 00-25.168 14.695 8 8 0 00-2.785 8.883l3.672 11.188a106.53 106.53 0 00-4.41 4.406l-11.176-3.672a8.048 8.048 0 00-8.883 2.781 120.07 120.07 0 00-14.707 25.18 7.995 7.995 0 002.023 9.094l8.895 7.969a101.75 101.75 0 00-1.605 5.945l-12.441 2.484a7.998 7.998 0 00-6.433 7.844v27.28a7.998 7.998 0 006.434 7.844l12.441 2.484a104.467 104.467 0 001.605 5.945l-8.898 7.969a8.007 8.007 0 00-2.023 9.094 120.139 120.139 0 0014.707 25.18 8.037 8.037 0 008.883 2.781l11.176-3.672a109.064 109.064 0 004.41 4.406l-3.672 11.172a8.007 8.007 0 002.781 8.883 120.101 120.101 0 0025.176 14.711 8.014 8.014 0 009.094-2.023l7.973-8.891c1.996.602 3.999 1.141 6.008 1.617l2.434 11.586a7.997 7.997 0 006.859 6.297c2.321.284 4.489.477 6.613.636v88.622h-56.69c-3.271-23.577-19.971-47.56-34.992-68.977zM168 195.859c.051 36.644 27.587 67.419 64 71.528v27.511l-1.324-6.297a8.002 8.002 0 00-6.41-6.234 86.678 86.678 0 01-13.937-3.758 8.134 8.134 0 00-2.707-.469 7.993 7.993 0 00-5.957 2.664l-7.523 8.391a103.707 103.707 0 01-12.043-7.07l3.473-10.57a8.008 8.008 0 00-2.434-8.609 87.569 87.569 0 01-10.238-10.234 8.042 8.042 0 00-8.598-2.422l-10.566 3.477a103.788 103.788 0 01-7.074-12.047l8.398-7.523a8.015 8.015 0 002.191-8.664 87.152 87.152 0 01-3.758-13.937 7.998 7.998 0 00-6.309-6.422L136 202.938v-14.156l11.184-2.234a7.998 7.998 0 006.309-6.422 87.359 87.359 0 013.757-13.946 8.004 8.004 0 00-2.195-8.664L146.664 150a105.105 105.105 0 017.07-12.047l10.57 3.477a8.045 8.045 0 008.598-2.422 89.5 89.5 0 0110.246-10.258 7.992 7.992 0 002.422-8.586l-3.469-10.57a104.337 104.337 0 0112.039-7.07l7.523 8.391a8.029 8.029 0 008.664 2.195 86.47 86.47 0 0113.937-3.758 7.994 7.994 0 006.41-6.227L232 96.828v27.503c-36.413 4.11-63.949 34.884-64 71.528zm64-55.361V251.22c-30.575-4.377-51.813-32.712-47.436-63.287 3.521-24.592 22.843-43.914 47.436-47.435zm84 319.643a8.008 8.008 0 01-8 8H172a8.148 8.148 0 01-8-8.563 8.008 8.008 0 018-8h136a8.148 8.148 0 018 8.563zm-10.047-40a7.328 7.328 0 018 7.437 8.008 8.008 0 01-8 8H174.047a8.147 8.147 0 01-8-8.563 7.226 7.226 0 018-6.875h131.906zM304 307.859a8 8 0 11-8 8 8.009 8.009 0 018-8zm-16-240a8 8 0 11-8 8 8.009 8.009 0 018-8zm16 168h-56v-80h56v80zm88-8a8 8 0 118-8 8.007 8.007 0 01-8 8z" transform="matrix(.0788 -.1109 .1109 .0788 86.762 105.814)"/><path d="M317.152 369.828a135.622 135.622 0 00-7.472 15.625l14.875 5.891a119.662 119.662 0 016.605-13.781l-14.008-7.735zM335.148 341.648c-3.144 4.516-6.281 9.109-9.281 13.75l13.43 8.688c2.906-4.484 5.941-8.922 8.984-13.297l-13.133-9.141zM353.348 315.031c-2.699 4.281-5.707 8.711-8.859 13.258l13.141 9.125c3.301-4.75 6.441-9.383 9.258-13.867l-13.54-8.516zM368.359 287.148a360.795 360.795 0 01-7.191 14.227l14.109 7.547a364.842 364.842 0 007.52-14.883l-14.438-6.891zM380.855 257.789a369.561 369.561 0 01-5.934 14.812l14.727 6.266a395.678 395.678 0 006.184-15.453l-14.977-5.625zM415.992 165.211l-16 .125.008 1.469c0 4.461-.207 9.203-.621 14.078l15.945 1.344c.449-5.32.676-10.508.676-15.422l-.008-1.594zM411.918 131.156l-15.578 3.641a138.332 138.332 0 012.664 15.164l15.891-1.891a155.085 155.085 0 00-2.977-16.914zM400.418 98.828l-14.383 7a139.871 139.871 0 015.969 14.203l15.07-5.359a153.94 153.94 0 00-6.656-15.844zM382.117 69.859l-12.531 9.953a145.593 145.593 0 018.945 12.578l13.523-8.547a161.405 161.405 0 00-9.937-13.984zM358.141 45.445l-10.195 12.328a151.07 151.07 0 0111.402 10.461l11.406-11.219a167.952 167.952 0 00-12.613-11.57zM329.836 26.375l-7.609 14.078a161.123 161.123 0 0113.293 8.031l8.93-13.281a180.287 180.287 0 00-14.614-8.828zM298.477 13.102l-4.844 15.25a164.414 164.414 0 0114.578 5.383l6.258-14.719a179.849 179.849 0 00-15.992-5.914zM265.285 5.758l-2.047 15.875c5.16.664 10.324 1.563 15.348 2.68l3.461-15.625a195.136 195.136 0 00-16.762-2.93zM16 435h16v16H16zM16 467h16v16H16zM32 451h16v16H32zM0 451h16v16H0zM456 3h16v16h-16zM456 35h16v16h-16zM472 19h16v16h-16zM440 19h16v16h-16z" transform="matrix(.0788 -.1109 .1109 .0788 86.762 105.814)"/></g><g id="C"><path d="M159.475 200.127c-17.342 10.843-28.048 28.3-30.148 49.163-2.173 21.55 9.854 44.34 31.387 59.478a92.813 92.813 0 0037.937 15.461 50.7 50.7 0 00-10.686 14.862c-9.783 21-3.468 47.463 15.019 62.938 8.409 7.03 16.355 10.959 23.4 14.445 9.849 4.864 11.9 5.877 11.9 20.924 0 3.785 1.135 20.508 2.1 28.292 2.289 18.324 4.882 39.31 20.72 39.31 13.8 0 17.376-15.834 21.158-32.354l1.973-8.56c2.148-9.027 3.844-16.212 5.653-25.979 5.693-30.728-8.406-56.205-39.7-71.69-2.274-1.123-4.39-2.182-6.364-3.31a66.81 66.81 0 0114.458 1.143c34.333 6.074 60.8 1.9 78.673-12.378 13.18-10.514 20.913-26.013 21.776-43.643.645-13.294-4.818-32.819-21.93-46.008a74.011 74.011 0 0021.064-9.481c15.249-10.2 24.366-25.537 25.013-42.084.653-17.222-5.684-32.544-17.846-43.139-.052-.046-.1-.09-.158-.134-16.649-14.392-42.287-18.613-76.2-12.553-9.531 1.692-14.493 1.108-16.674.591-.034-.395 0-.9 0-1.519V136.6c9-7.894 22.406-22 22.406-50.747a82.187 82.187 0 00-1.676-16.069 14.822 14.822 0 00-6.3-19.877c-8.048-18.78-20.147-32.923-28.31-38.294a25.441 25.441 0 00-27.928 0c-8 5.265-19.878 19.066-27.929 37.416a14.79 14.79 0 00-7.027 22.786 81.831 81.831 0 00-1.487 14.035C193.754 114.6 208 128.707 216 136.6v17.3c0 17.167 5.934 29.054 12.437 37.021q-41.931-7.699-68.962 9.206zM279.5 60.184a2.841 2.841 0 11-2.841 2.841 2.844 2.844 0 012.841-2.841zm-72.336 5.682a2.841 2.841 0 112.841-2.841 2.844 2.844 0 01-2.837 2.841zM333.718 216.63c4.128-2.766 5.262-5.477 5.559-6.514a6.042 6.042 0 00.23-1.516c.081-3.7-.928-6.5-2.985-8.307-2.175-1.922-11.508-7.792-40.235-2.7-23.188 4.157-41.262 1.15-53.288-8.927-6.742-5.648-15-16.264-15-34.764v-19.735c1-1.822-.45-3.583-1.823-4.785-10.334-9.047-20.313-19.861-20.313-43.528a67.2 67.2 0 01.567-8.022c.227.01.479.034.71.034a14.829 14.829 0 007.718-27.506c6.672-13.7 15.844-24.714 21.92-28.713a13.432 13.432 0 0114.749 0c6 3.95 14.932 14.643 21.568 28.016a14.809 14.809 0 008.732 28.008 67.072 67.072 0 01.519 8.188c0 23.667-10.03 34.48-20.364 43.528a6.338 6.338 0 00-1.983 4.84V153.9c0 5.154 1.079 8.631 3.421 10.63.038.032.046.065.085.1 1.629 1.322 8.4 5.372 27.287 2.016 30.269-5.412 52.59-2.073 66.362 9.92.045.04.087.079.133.117 9.285 8.162 14.113 20.059 13.6 33.513-.5 12.66-7.674 24.531-19.693 32.57-5.957 3.981-16.4 9.056-32.306 10.627a6 6 0 00-1.539 11.581 47.46 47.46 0 019.485 4.863c15.547 10.34 20.441 26.831 19.909 37.809-.691 14.135-6.826 26.51-17.277 34.847-15.063 12.036-38.308 15.382-69.1 9.935-16.37-2.884-29.2-1.164-32.682 4.375a5.976 5.976 0 00-.6 1.269c-1.107 3.27.553 7.942 3.774 10.631 4.451 3.725 9.1 6.02 14.016 8.446 26.806 13.263 37.982 33.019 33.222 58.72-1.754 9.469-3.419 16.47-5.533 25.357l-1.989 8.513c-2.569 11.222-5.225 22.825-9.465 22.825-5.243 0-7.477-17.889-8.812-28.575-.884-7.111-2.01-23.232-2.01-26.589 0-21.5-6.373-25.652-18.618-31.7-6.724-3.325-13.676-6.763-20.985-12.873-14.389-12.045-19.37-32.512-11.842-48.665a40.2 40.2 0 0119.446-19.079 6 6 0 00-2.572-11.417c-17.8-.022-34.437-5.11-48.1-14.714-17.99-12.647-28.086-31.215-26.347-48.458 1.719-17.086 10.445-31.358 24.566-40.188 21.965-13.715 53.771-13.045 94.534 1.992 47.739 17.615 68.21 7.769 73.349 4.332zm-36.75-6.976c.473-.079.947-.162 1.425-.247 13.289-2.356 21.255-2.035 25.7-1.3-4.117 1.593-12.593 3.558-27.125 1.547z" transform="rotate(-39.429 404.163 61.249) scale(.18253)"/><path d="M249.151 308.026a6 6 0 001.608 11.681 121.783 121.783 0 0115.077 1.765 124.555 124.555 0 0021.388 2.119c12.366 0 19.04-2.8 22.627-5.672 3.8-3.036 4.7-6.364 4.914-10.752 0-.1.006-.212.006-.317a12.658 12.658 0 00-5.358-10.85c-4.165-2.756-17.042-7.634-46.642 6.5a120.968 120.968 0 01-13.62 5.526zm53.5-2.1a2.435 2.435 0 01.121.78 11.023 11.023 0 01-.167 1.628 4.185 4.185 0 01-.251.212c-.689.553-6.932 4.933-28.348 2.055 19.946-8.337 27.614-5.189 28.645-4.673zM204.107 231.976c-11.267 0-17.966 2.714-21.594 4.988-3.567 2.227-10.989 6.862-9.965 17.828.342 3.652 3.5 11.645 13.146 18.433 4.926 3.464 15.281 9.113 30.4 9.113 9.291 0 20.382-2.133 33.117-8.214a134.647 134.647 0 0132.771-11.213 6 6 0 00.051-11.786 213.507 213.507 0 01-32.552-9.332c-17.651-6.515-32.919-9.817-45.374-9.817zm39.937 31.324c-27.745 13.251-45.219 4.494-51.445.114-6.649-4.675-7.988-9.357-8.115-9.863-.245-2.892.526-3.994 4.393-6.409 1.518-.95 6.038-3.161 15.23-3.161 11.034 0 24.9 3.053 41.225 9.076q6.4 2.357 12.628 4.294-6.826 2.56-13.916 5.949z" transform="rotate(-39.429 404.163 61.249) scale(.18253)"/></g><g id="G"><path d="M6 37h8v-2h4v-3h23a3 3 0 013 3v1h-1a1 1 0 00-1 1v4a1 1 0 001 1h12a1 1 0 001-1v-4a1 1 0 00-1-1h-1v-3a11.013 11.013 0 00-11-11h-2.382L38.9 18.553A1 1 0 0038 18h-1v-3a1 1 0 00-1-1h-1v-2h7a1 1 0 001-1V7a1 1 0 00-1-1h-7V5a3 3 0 00-6 0v1h-7a1 1 0 00-1 1v4a1 1 0 001 1h7v2h-1a1 1 0 00-1 1v3h-1a1 1 0 00-.895.553L23.382 22H18v-3h-4v-2H6zm48 1v2H44v-2zM41 8v2h-8V8zM31 5a1 1 0 012 0v1h-2zm2 7v2h-2v-2zm-10-2V8h8v2zm6 6h6v2h-6zm-11 8h6a1 1 0 00.895-.553L26.618 20h10.764l1.718 3.447A1 1 0 0040 24h3a9.01 9.01 0 019 9v3h-6v-1a5.006 5.006 0 00-5-5H18zm-4-3h2v12h-2zm-6-2h4v16H8z" transform="rotate(22.62 -710.313 328.697) scale(.8706)"/><path d="M28.105 22.553L26.382 26H24v2h3a1 1 0 00.895-.553L29.618 24H33v-2h-4a1 1 0 00-.895.553zM20 26h2v2h-2zM45.128 44.511C44.605 45.44 42 50.174 42 52a4 4 0 008 0c0-1.826-2.6-6.56-3.128-7.489a1.04 1.04 0 00-1.744 0zM48 52a2 2 0 01-4 0 19.043 19.043 0 012-4.888A19.043 19.043 0 0148 52zM53.128 50.511C52.605 51.44 50 56.174 50 58a4 4 0 008 0c0-1.826-2.6-6.56-3.128-7.489a1.04 1.04 0 00-1.744 0zM54 60a2 2 0 01-2-2 19.043 19.043 0 012-4.888A19.043 19.043 0 0156 58a2 2 0 01-2 2z" transform="rotate(22.62 -710.313 328.697) scale(.8706)"/></g><g id="K"><path d="M499.639 396.039l-103.646-69.12c-13.153-8.701-30.784-5.838-40.508 6.579l-30.191 38.818a12.903 12.903 0 01-16.546 3.482l-5.743-3.166c-19.038-10.377-42.726-23.296-90.453-71.04s-60.672-71.45-71.049-90.453l-3.149-5.743a12.92 12.92 0 013.413-16.606l38.792-30.182c12.412-9.725 15.279-27.351 6.588-40.508l-69.12-103.646C109.12 1.056 91.25-2.966 77.461 5.323L34.12 31.358A61.136 61.136 0 006.242 67.539c-15.607 56.866-3.866 155.008 140.706 299.597 115.004 114.995 200.619 145.92 259.465 145.92a151.181 151.181 0 0040.107-5.239 61.079 61.079 0 0036.181-27.878l26.061-43.315c8.301-13.792 4.281-31.673-9.123-40.585zm-5.581 31.829l-26.001 43.341a44.103 44.103 0 01-26.027 20.173c-52.497 14.413-144.213 2.475-283.008-136.32S8.29 124.559 22.703 72.054a44.17 44.17 0 0120.198-26.061l43.341-26.001c5.983-3.6 13.739-1.855 17.604 3.959l37.547 56.371 31.514 47.266c3.774 5.707 2.534 13.356-2.85 17.579l-38.801 30.182c-11.808 9.029-15.18 25.366-7.91 38.332l3.081 5.598c10.906 20.002 24.465 44.885 73.967 94.379 49.502 49.493 74.377 63.053 94.37 73.958l5.606 3.089c12.965 7.269 29.303 3.898 38.332-7.91l30.182-38.801c4.224-5.381 11.87-6.62 17.579-2.85l103.637 69.12c5.818 3.862 7.563 11.622 3.958 17.604zM291.161 86.39c80.081.089 144.977 64.986 145.067 145.067 0 4.713 3.82 8.533 8.533 8.533s8.533-3.82 8.533-8.533c-.099-89.503-72.63-162.035-162.133-162.133-4.713 0-8.533 3.82-8.533 8.533s3.82 8.533 8.533 8.533z" transform="translate(125.49 14.49) scale(.0801)"/><path d="M291.161 137.59c51.816.061 93.806 42.051 93.867 93.867a8.533 8.533 0 0017.066 0c-.071-61.238-49.696-110.863-110.933-110.933-4.713 0-8.533 3.82-8.533 8.533s3.82 8.533 8.533 8.533z" transform="translate(125.49 14.49) scale(.0801)"/><path d="M291.161 188.79c23.552.028 42.638 19.114 42.667 42.667a8.533 8.533 0 0017.066 0c-.038-32.974-26.759-59.696-59.733-59.733-4.713 0-8.533 3.82-8.533 8.533s3.82 8.533 8.533 8.533z" transform="translate(125.49 14.49) scale(.0801)"/></g><g id="M"><path d="M43 20.113V14.5C43 6.505 35.822 0 27 0S11 6.505 11 14.5v5.613c-3.401.586-6 3.55-6 7.117v19.542C5 50.757 8.243 54 12.229 54h29.542C45.757 54 49 50.757 49 46.771V27.229c0-3.566-2.599-6.53-6-7.116zM13 14.5C13 7.607 19.28 2 27 2s14 5.607 14 12.5V20H13v-5.5zm34 32.271A5.235 5.235 0 0141.771 52H12.229A5.235 5.235 0 017 46.771V27.229A5.235 5.235 0 0112.229 22h29.542A5.235 5.235 0 0147 27.229v19.542z" transform="rotate(-15.946 590.577 -955.033) scale(.83612)"/><path d="M27 28c-2.206 0-4 1.794-4 4v6c0 2.206 1.794 4 4 4s4-1.794 4-4v-6c0-2.206-1.794-4-4-4zm2 10c0 1.103-.897 2-2 2s-2-.897-2-2v-6c0-1.103.897-2 2-2s2 .897 2 2v6z" transform="rotate(-15.946 590.577 -955.033) scale(.83612)"/></g><path d="M494.039 350.786a81.251 81.251 0 00-2.048-9.752c-.107-.386-.219-.768-.331-1.152a80.525 80.525 0 00-8.704-19.796 84.409 84.409 0 0028.415-74.041c-.136-1.185-.353-2.343-.538-3.515a84.182 84.182 0 00-1.16-6.004 83.585 83.585 0 00-1.107-4.293c-.45-1.547-.971-3.06-1.505-4.571-.569-1.626-1.109-3.256-1.774-4.838l-.015-.032a84.154 84.154 0 00-7.13-13.257c-.347-.533-.672-1.079-1.031-1.604a84.025 84.025 0 00-4.053-5.416c-.473-.586-.962-1.156-1.451-1.73-1.463-1.715-2.946-3.405-4.55-5.005-.31-.311-.651-.588-.967-.894a85.152 85.152 0 00-8.721-7.358c-1.33-.987-2.658-1.973-4.046-2.884-.525-.342-.988-.753-1.522-1.085a75.519 75.519 0 006.067-29.954c0-2.563-.139-5.093-.385-7.592-.082-.83-.242-1.634-.351-2.457-.217-1.65-.432-3.298-.752-4.914-.193-.976-.461-1.922-.691-2.885-.341-1.426-.674-2.854-1.095-4.248-.304-1.009-.671-1.988-1.016-2.98-.451-1.298-.898-2.595-1.416-3.861-.413-1.009-.875-1.99-1.329-2.977-.55-1.197-1.104-2.389-1.713-3.552a75.866 75.866 0 00-1.63-2.909 76.918 76.918 0 00-1.983-3.261 76.774 76.774 0 00-1.921-2.806 77.117 77.117 0 00-4.434-5.654 77.353 77.353 0 00-2.439-2.682 76.641 76.641 0 00-2.484-2.519 76.872 76.872 0 00-2.621-2.383 76.944 76.944 0 00-2.759-2.341c-.899-.717-1.83-1.39-2.761-2.066-1.003-.729-1.999-1.462-3.038-2.143-.938-.614-1.909-1.174-2.875-1.748-1.091-.649-2.169-1.311-3.294-1.907-.978-.518-1.994-.969-2.996-1.446-1.168-.555-2.319-1.135-3.517-1.631-1.02-.423-2.079-.765-3.12-1.144-1.23-.448-2.441-.935-3.699-1.321-1.223-.375-2.489-.647-3.738-.963a77.384 77.384 0 00-6.033-1.268c-1.42-.239-2.827-.516-4.271-.676-1.702-36.892-28.144-67.962-64.289-75.54-36.145-7.579-72.84 10.253-89.218 43.354-16.373-33.1-53.067-50.933-89.213-43.355s-62.589 38.647-64.291 75.539c-1.965.216-3.891.554-5.808.916-.418.079-.849.113-1.265.199a76.014 76.014 0 00-7.083 1.826c-.791.244-1.546.56-2.326.829-1.518.523-3.038 1.041-4.512 1.655-.904.377-1.77.821-2.657 1.232-1.298.601-2.601 1.192-3.858 1.861-.918.489-1.796 1.033-2.691 1.557-1.172.687-2.344 1.368-3.475 2.114-.886.583-1.735 1.213-2.596 1.831-1.079.776-2.153 1.556-3.189 2.386-.834.668-1.636 1.369-2.441 2.07a76.56 76.56 0 00-2.921 2.656 76.124 76.124 0 00-2.257 2.289 75.913 75.913 0 00-4.696 5.397 77.699 77.699 0 00-2.364 3.159 78.171 78.171 0 00-1.818 2.654 77.224 77.224 0 00-2.069 3.402c-.534.924-1.067 1.845-1.564 2.793-.629 1.198-1.201 2.426-1.766 3.661-.438.956-.886 1.905-1.286 2.882-.527 1.289-.984 2.61-1.442 3.933-.338.974-.698 1.936-.997 2.929-.424 1.407-.761 2.848-1.105 4.288-.227.95-.492 1.883-.683 2.846-.323 1.625-.538 3.283-.756 4.943-.107.816-.267 1.615-.348 2.438a77.483 77.483 0 00-.385 7.594 75.503 75.503 0 006.067 29.95c-.547.34-1.021.76-1.559 1.111-1.344.882-2.629 1.839-3.918 2.794a85.406 85.406 0 00-8.933 7.535c-.272.265-.568.504-.836.773-1.612 1.609-3.103 3.307-4.574 5.032-.48.565-.961 1.125-1.427 1.702a84.557 84.557 0 00-4.066 5.433c-.354.518-.674 1.057-1.018 1.583a84.252 84.252 0 00-8.931 18.15c-.533 1.507-1.052 3.017-1.502 4.562a84.668 84.668 0 00-1.107 4.294 84.962 84.962 0 00-1.16 6.004c-.184 1.172-.402 2.329-.538 3.515a84.431 84.431 0 0028.41 74.049 80.496 80.496 0 00-8.7 19.791c-.112.384-.225.767-.332 1.153a81.089 81.089 0 00-2.048 9.754c-.078.536-.128 1.078-.195 1.617a82.534 82.534 0 00-.702 10.266c-.168 37.764 25.89 70.589 62.708 78.992.245.948.576 1.856.849 2.792.267.911.533 1.82.827 2.719a92.64 92.64 0 002.229 6.078c.259.638.493 1.286.765 1.918a93.442 93.442 0 0013.522 22.246c.343.42.706.818 1.056 1.231a94.25 94.25 0 004.599 5.06 98.933 98.933 0 001.626 1.613 93.014 93.014 0 004.594 4.176c.647.553 1.288 1.109 1.949 1.644a94.041 94.041 0 004.937 3.694c.662.467 1.303.961 1.978 1.412a94.714 94.714 0 007.096 4.316c.492.269 1.013.488 1.511.749 1.984 1.036 3.994 2.026 6.055 2.921 1.054.459 2.14.85 3.213 1.271 1.563.611 3.131 1.206 4.731 1.735a92.01 92.01 0 003.549 1.075c1.604.46 3.223.878 4.856 1.252 1.168.268 2.335.53 3.519.754 1.837.348 3.695.614 5.565.852 1.011.129 2.011.292 3.033.387 2.916.276 5.856.447 8.833.447 36.754-.055 70.099-21.543 85.333-54.991 15.235 33.448 48.579 54.936 85.333 54.991 2.977 0 5.917-.172 8.833-.447 1.021-.096 2.021-.259 3.033-.387 1.869-.238 3.728-.504 5.565-.852a93.102 93.102 0 003.519-.754 92.596 92.596 0 004.856-1.252 92.596 92.596 0 003.55-1.075c1.6-.529 3.168-1.124 4.731-1.735 1.074-.421 2.159-.812 3.213-1.271 2.06-.895 4.07-1.885 6.055-2.921.497-.261 1.019-.48 1.511-.749a94.382 94.382 0 007.096-4.316c.674-.451 1.315-.945 1.978-1.412a94.46 94.46 0 004.937-3.694c.662-.535 1.303-1.092 1.949-1.644a96.586 96.586 0 006.22-5.789 94.212 94.212 0 004.599-5.06c.35-.413.713-.811 1.056-1.231a93.475 93.475 0 0013.522-22.246c.272-.631.506-1.28.765-1.918a93.219 93.219 0 002.229-6.078c.294-.899.559-1.808.827-2.719.273-.935.604-1.844.849-2.792 36.82-8.4 62.879-41.226 62.708-78.992a82.528 82.528 0 00-.702-10.264c-.067-.545-.116-1.088-.195-1.627zM247.47 85.34h-18.639c-4.156-11.755-16.176-18.806-28.465-16.698-12.289 2.108-21.271 12.763-21.271 25.231 0 12.468 8.982 23.123 21.271 25.231 12.289 2.108 24.309-4.943 28.465-16.698h18.639v31.403l-37.05 51.868-31.343-13.752c.021-.424.126-.823.126-1.253.125-12.491-8.695-23.286-20.96-25.653-12.265-2.367-24.469 4.372-29 16.012s-.094 24.856 10.544 31.404c10.638 6.548 24.435 4.556 32.787-4.732l30.988 13.598a16.91 16.91 0 006.817 1.429 17.113 17.113 0 0013.925-7.138l23.167-32.432v67.244h-69.839c-4.156-11.755-16.176-18.806-28.465-16.698s-21.271 12.763-21.271 25.231 8.982 23.123 21.271 25.231 24.309-4.943 28.465-16.698h69.839v34.133h-18.639c-4.156-11.755-16.176-18.806-28.465-16.698-12.289 2.108-21.271 12.763-21.271 25.231s8.982 23.123 21.271 25.231 24.309-4.943 28.465-16.698h18.639v34.133h-69.808a17.114 17.114 0 00-16.733 13.721l-6.019 30.112c-11.816 3.598-19.337 15.168-17.828 27.427 1.509 12.259 11.612 21.66 23.948 22.284 12.336.624 23.336-7.708 26.075-19.753s-3.575-24.315-14.968-29.087l5.525-27.638h69.808v68.267c-.048 42.396-34.404 76.752-76.8 76.8-2.48 0-4.927-.142-7.348-.372-.875-.084-1.733-.234-2.601-.347-1.52-.198-3.037-.407-4.528-.693-1.029-.198-2.04-.446-3.055-.685a76.929 76.929 0 01-3.876-.999 78.353 78.353 0 01-3.106-.985 75.199 75.199 0 01-3.631-1.332 79.631 79.631 0 01-2.952-1.225 75.062 75.062 0 01-3.636-1.754c-.87-.443-1.748-.873-2.6-1.349-1.388-.776-2.733-1.615-4.067-2.473-.602-.386-1.223-.743-1.814-1.146a77.43 77.43 0 01-10.997-9.095c-.128-.127-.244-.266-.37-.394a78.725 78.725 0 01-4.423-4.866c-.26-.312-.503-.64-.758-.957a77.197 77.197 0 01-3.542-4.734c-.286-.416-.558-.841-.836-1.264a77.97 77.97 0 01-3.744-6.313 76.305 76.305 0 01-2.386-4.947c-.244-.554-.495-1.104-.727-1.664a76.654 76.654 0 01-1.894-5.166c-.189-.573-.401-1.137-.577-1.716a76.346 76.346 0 01-1.501-5.825c-.093-.422-.215-.831-.301-1.256a76.786 76.786 0 0113.828-61.326 8.535 8.535 0 10-13.65-10.25 93.074 93.074 0 00-18.775 56.333c0 1.69.165 3.336.254 5.005-25.781-8.885-43.04-33.203-42.92-60.471a64.86 64.86 0 01.851-10.487c.066-.408.217-.786.291-1.191a62.818 62.818 0 0112.166-27.297c.055-.07.064-.163.116-.234a63.741 63.741 0 0131.751-21.978 8.535 8.535 0 10-5.017-16.317 81.007 81.007 0 00-34.746 21.399 68.39 68.39 0 01-22.479-50.561 69.42 69.42 0 01.596-8.56c.113-.905.263-1.799.412-2.693.319-1.941.738-3.85 1.219-5.739.246-.956.452-1.927.739-2.866a67.71 67.71 0 012.504-6.89c.558-1.307 1.209-2.563 1.846-3.826a67.758 67.758 0 011.66-3.13c.784-1.373 1.587-2.735 2.461-4.047.503-.756 1.064-1.472 1.597-2.208a68.962 68.962 0 015.39-6.538c.755-.807 1.5-1.621 2.297-2.392a69.212 69.212 0 013.234-2.94 68.643 68.643 0 013.792-2.985c1.029-.763 2.052-1.527 3.123-2.232a69.806 69.806 0 016.132-3.572 67.774 67.774 0 0131.264-7.649 8.533 8.533 0 000-17.066 84.736 84.736 0 00-29.728 5.449 58.643 58.643 0 01-4.406-22.516 59.756 59.756 0 0188.667-52.271 8.536 8.536 0 008.284-14.924 76.688 76.688 0 00-28.496-9.05c1.984-34.562 31.107-61.272 65.711-60.266s62.127 29.36 62.102 63.979v4.269zm-34.133 8.534a8.533 8.533 0 11-8.533-8.533 8.542 8.542 0 018.533 8.533zm-51.2 76.8a8.533 8.533 0 11-8.533-8.533 8.542 8.542 0 018.533 8.533zm0 68.266a8.533 8.533 0 11-8.533-8.533 8.542 8.542 0 018.533 8.533zm51.2 51.2a8.533 8.533 0 11-8.533-8.533 8.542 8.542 0 018.533 8.533zM170.67 401.074c0 4.713-3.82 8.533-8.533 8.533s-8.533-3.82-8.533-8.533 3.82-8.533 8.533-8.533a8.54 8.54 0 018.533 8.533zm264.28 22.072c.089-1.668.254-3.316.254-5.006a93.074 93.074 0 00-18.775-56.333 8.536 8.536 0 00-13.65 10.25 76.786 76.786 0 0113.828 61.326c-.086.424-.208.834-.301 1.256a76.346 76.346 0 01-1.501 5.825c-.177.58-.388 1.145-.577 1.719a76.564 76.564 0 01-1.891 5.156c-.233.567-.487 1.121-.733 1.681a76.53 76.53 0 01-2.382 4.937 76.057 76.057 0 01-3.744 6.313c-.278.422-.55.848-.836 1.264a76.892 76.892 0 01-3.542 4.734c-.256.317-.498.645-.758.957a76.863 76.863 0 01-4.423 4.866c-.127.128-.243.267-.37.394a77.362 77.362 0 01-10.997 9.095c-.591.403-1.212.759-1.814 1.146a76.58 76.58 0 01-4.067 2.473c-.853.475-1.731.907-2.602 1.35a76.738 76.738 0 01-3.631 1.752 77.3 77.3 0 01-2.958 1.227 76.142 76.142 0 01-3.628 1.33 78.366 78.366 0 01-3.106.986 76.38 76.38 0 01-3.876.999c-1.014.239-2.026.487-3.055.685-1.491.286-3.008.494-4.528.693-.868.114-1.725.263-2.601.347-2.42.231-4.867.372-7.347.372-42.396-.048-76.752-34.404-76.8-76.8v-31.403l37.05-51.868 31.343 13.752c-.021.424-.126.823-.126 1.252-.125 12.491 8.695 23.286 20.96 25.652 12.265 2.367 24.469-4.372 29-16.012s.094-24.856-10.544-31.404c-10.638-6.548-24.435-4.556-32.787 4.732l-30.987-13.598a17.126 17.126 0 00-20.742 5.709l-23.167 32.431V290.14h69.84c4.156 11.755 16.177 18.805 28.465 16.697s21.27-12.764 21.27-25.231-8.983-23.122-21.271-25.23c-12.288-2.108-24.308 4.943-28.464 16.698H264.54V238.94h18.64c4.156 11.755 16.177 18.805 28.465 16.697 12.288-2.109 21.27-12.764 21.27-25.231 0-12.468-8.983-23.122-21.271-25.23-12.288-2.108-24.308 4.943-28.464 16.698h-18.639v-42.667h27.142a17.114 17.114 0 0016.733-13.721l6.02-30.112c11.818-3.597 19.34-15.168 17.832-27.428-1.508-12.26-11.611-21.663-23.948-22.288s-23.339 7.708-26.078 19.753c-2.74 12.045 3.574 24.317 14.968 29.09l-5.526 27.639h-27.142V81.073c-.02-34.618 27.507-62.969 62.111-63.969s63.723 25.714 65.702 60.275a76.658 76.658 0 00-29.688 9.707 8.536 8.536 0 008.55 14.775 59.75 59.75 0 0189.592 51.746 58.624 58.624 0 01-4.405 22.516 84.741 84.741 0 00-29.729-5.449c-4.713 0-8.533 3.82-8.533 8.533s3.82 8.533 8.533 8.533a67.775 67.775 0 0131.265 7.649 70.057 70.057 0 016.132 3.572c1.071.705 2.095 1.47 3.123 2.232a68.27 68.27 0 013.792 2.985 69.212 69.212 0 013.234 2.94c.796.771 1.542 1.585 2.297 2.392a68.962 68.962 0 015.39 6.538c.533.736 1.094 1.452 1.597 2.208.875 1.312 1.678 2.673 2.461 4.047a67.248 67.248 0 011.66 3.13c.637 1.263 1.287 2.52 1.846 3.826a67.95 67.95 0 012.504 6.89c.286.939.493 1.91.739 2.866.481 1.889.9 3.798 1.219 5.739.149.894.299 1.787.412 2.693a69.42 69.42 0 01.596 8.56 68.388 68.388 0 01-22.479 50.561 81.007 81.007 0 00-34.746-21.399 8.536 8.536 0 00-5.017 16.317 63.734 63.734 0 0131.727 21.951c.059.082.07.186.132.266a62.812 62.812 0 0112.229 27.516c.058.327.181.631.234.959.569 3.47.854 6.98.852 10.496.118 27.269-17.142 51.588-42.924 60.472zm-85.08-73.272c0-4.713 3.82-8.533 8.533-8.533s8.533 3.82 8.533 8.533-3.82 8.533-8.533 8.533a8.543 8.543 0 01-8.533-8.533zm0-68.267a8.533 8.533 0 118.533 8.533 8.542 8.542 0 01-8.533-8.533zm-51.2-51.2c0-4.713 3.82-8.533 8.533-8.533s8.533 3.82 8.533 8.533-3.82 8.533-8.533 8.533a8.542 8.542 0 01-8.533-8.533zm0-119.467c0-4.713 3.82-8.533 8.533-8.533s8.533 3.82 8.533 8.533-3.82 8.533-8.533 8.533a8.542 8.542 0 01-8.533-8.533z" transform="matrix(.11719 0 0 .11719 152 138)" id="a"/><path d="M400.388 175.787c-1.707-3.413-4.267-5.12-7.68-5.12H292.015L391.855 12.8c1.707-2.56 1.707-5.973 0-8.533S387.588 0 384.175 0H247.642c-3.413 0-5.973 1.707-7.68 4.267l-128 256c-1.707 2.56-1.707 5.973 0 8.533 1.707 2.56 5.12 4.267 7.68 4.267h87.893l-95.573 227.84c-1.707 3.413 0 7.68 3.413 10.24.853.853 2.56.853 4.267.853 2.56 0 5.12-.853 6.827-2.56l273.067-324.267c1.706-2.56 2.559-5.973.852-9.386zm-250.88 279.04l78.507-187.733c.853-2.56.853-5.12-.853-7.68-1.707-1.707-4.267-3.413-6.827-3.413h-87.04L252.762 17.067h116.053L268.122 174.933c-1.707 2.56-1.707 5.973 0 8.533s4.267 4.267 7.68 4.267h98.987L149.508 454.827z" transform="matrix(.14932 .01357 -.01357 .14932 148.243 219.296)" id="e"/><path d="M495 204.457h-22.414c-12.402-25.039-37.999-41.652-67.018-41.652h-61.197c-23.787 0-46.439 11.256-60.002 30.452-15.512-11.14-43.425-10.997-58.737 0-13.551-19.178-36.194-30.452-60.002-30.452h-61.197c-29.038 0-54.623 16.628-67.018 41.652H15c-8.284 0-15 6.716-15 15s6.716 15 15 15h14.741a74.443 74.443 0 00.947 15.287l4.855 29.128c9.61 57.662 80.373 80.575 133.769 61.96 37.171-12.958 69.393-52.652 69.393-115.087 0-14.516 32.591-14.338 32.591 0 0 62.062 31.962 102.039 69.393 115.087 53.982 18.818 124.238-4.774 133.769-61.96l4.855-29.128a74.435 74.435 0 00.947-15.287H495c8.284 0 15-6.716 15-15s-6.716-15-15-15zM159.436 312.505c-37.475 13.064-88.121-1.485-94.301-38.564l-4.855-29.128c-4.493-26.959 16.373-52.007 44.152-52.007h61.197c65.628-.001 49.405 100.316-6.193 119.699zm290.284-67.693l-4.855 29.129c-6.192 37.15-56.928 51.594-94.301 38.564-55.583-19.377-71.946-119.699-6.193-119.699h61.197c27.805-.001 48.641 25.073 44.152 52.006z" transform="rotate(20.326 -324.604 943.258) scale(.10922)" id="q"/><path d="M421.054 414.843a7.5 7.5 0 00-7.5 7.5v70.514a4.146 4.146 0 01-4.141 4.141h-40.317V349.301a7.5 7.5 0 00-15 0v147.698h-81.185l23.543-25.9c2.572-2.83 3.785-6.861 3.244-10.787a5.982 5.982 0 00-.035-.228L277.24 327.617l6.041-9.094c3.34 2.372 5.913 4.656 10.738 4.656 4.908 0 9.497-2.747 11.755-7.269v-.001l23.65-47.4 53.876 20.865c1.949.836 30.252 13.582 30.252 47.238v50.73a7.5 7.5 0 0015 0v-50.73c0-44.344-37.969-60.463-39.585-61.128a3.546 3.546 0 00-.143-.057l-89.668-34.726v-21.03c14.242-11.076 24.117-27.495 26.596-46.227 7.101-.5 13.69-3.152 19.071-7.779a31.786 31.786 0 0011.059-24.126 31.791 31.791 0 00-7.737-20.803V92.953C348.144 41.699 306.446 0 255.192 0c-51.254 0-92.952 41.699-92.952 92.953v28.511c-5.009 5.677-7.733 12.665-7.733 20.074 0 9.291 4.03 18.085 11.059 24.129 5.377 4.625 11.962 7.274 19.061 7.775 2.499 19.083 12.662 36.114 28.117 47.339v19.92l-89.571 34.725a8.255 8.255 0 00-.141.056c-1.617.665-39.585 16.784-39.585 61.128v156.245c0 10.555 8.587 19.142 19.142 19.142h71.457a7.5 7.5 0 000-15h-16.137V349.301a7.5 7.5 0 00-15 0v147.698H102.59a4.146 4.146 0 01-4.141-4.141V336.611c0-33.769 28.493-46.486 30.243-47.234l53.834-20.87 23.652 47.402a13.133 13.133 0 0011.756 7.27c4.801 0 7.349-2.249 10.738-4.656l6.041 9.094-22.421 132.468c-.013.075-.024.15-.035.226-.542 3.924.671 7.957 3.244 10.789l23.543 25.9h-29.995a7.5 7.5 0 000 15h200.365c10.555 0 19.142-8.588 19.142-19.142v-70.514a7.503 7.503 0 00-7.502-7.501zM315.375 263.069l-22.049 44.19c-.548-.389-12.233-8.691-26.517-18.834l27.235-33.617 21.331 8.261zm-44.332 46.764l-5.718 8.607h-18.703l-5.718-8.607 15.07-10.703 15.069 10.703zm-43.3-66.712v-14.036c9.112 3.673 18.85 5.376 28.36 5.376 9.833 0 19.476-2.096 28.052-5.846v14.567l-28.181 34.785-28.231-34.846zm113.138-101.582a16.804 16.804 0 01-5.839 12.753c-2.453 2.11-5.416 3.459-8.661 3.987v-33.477c8.62 1.4 14.5 8.55 14.5 16.737zm-156.874 16.74c-8.718-1.415-14.5-8.623-14.5-16.741 0-8.018 6.647-14.544 14.5-16.359v33.1zm.403-48.383c-2.389.274-5.127.921-7.168 1.615V92.953c0-42.983 34.968-77.952 77.951-77.952 42.983 0 77.951 34.969 77.951 77.952v18.043a33.343 33.343 0 00-6.762-1.307c0-7.237.063-5.841-23.612-31.294-4.354-4.678-11.556-5.658-17.037-2.077-26.13 17.069-58.005 25.644-87.415 23.532-6.451-.483-12.327 3.766-13.908 10.046zm14.598 54.288V114.927c32.375 1.896 66.318-7.722 93.739-25.283 10.858 11.658 16.738 17.773 18.634 20.099v54.44c0 30.447-24.826 55.276-55.277 55.276-34.194.001-57.096-26.525-57.096-55.275zm19.615 143.075l-22.049-44.19 21.293-8.247 27.241 33.625c-13.853 9.837-25.228 17.919-26.485 18.812zm8.605 154.443l21.709-128.263h14.071l21.709 128.263-28.744 31.623-28.745-31.623z" transform="matrix(.149 -.03887 .03887 .149 -33.095 50.807)" id="u"/><path d="M472 144h-24v-12c0-15.464-12.536-28-28-28-4.16.023-8.261.983-12 2.808V96c0-17.673-14.327-32-32-32-17.673 0-32 14.327-32 32v48h-32v-8c.058-13.197-10.593-23.943-23.79-24.002A23.89 23.89 0 00272 118.24c-9.044-8.32-22.956-8.32-32 0-9.044-8.32-22.956-8.32-32 0-9.75-8.894-24.864-8.2-33.758 1.55A23.9 23.9 0 00168 136v8h-32V96c0-17.673-14.327-32-32-32-17.673 0-32 14.327-32 32v10.808A27.706 27.706 0 0060 104c-15.464 0-28 12.536-28 28v12H8a8 8 0 00-8 8v48a8 8 0 008 8h24v12c0 15.464 12.536 28 28 28a27.706 27.706 0 0012-2.808V256c0 17.673 14.327 32 32 32 17.673 0 32-14.327 32-32v-48h16v26.744a39.745 39.745 0 0011.72 28.28L184 283.312V416h16V280a8 8 0 00-2.344-5.656l-22.624-22.632A24.133 24.133 0 01168 234.744V184h46.856a9.6 9.6 0 017.744 3.752c.056.08.12.16.176.248.343.546.612 1.135.8 1.752.151.493.253.999.304 1.512.056.502.056 1.01 0 1.512a6.507 6.507 0 01-.104.8 8.37 8.37 0 01-.92 2.4A7.903 7.903 0 01216 200h-24a8 8 0 00-8 8v16a8 8 0 005.472 7.592l17.6 5.88C221.36 242.216 232 263.84 232 280h16c0-22.008-13.696-50.336-35.832-57.712L200 218.232V216h16a23.864 23.864 0 0017.6-8H304v29.336a24.138 24.138 0 01-4.8 14.4L281.6 275.2a7.998 7.998 0 00-1.6 4.8v136h16V282.664l16-21.328a40.226 40.226 0 008-24V208h24v48c0 17.673 14.327 32 32 32 17.673 0 32-14.327 32-32v-10.808A27.706 27.706 0 00420 248c15.464 0 28-12.536 28-28v-12h24a8 8 0 008-8v-48a8 8 0 00-8-8zM32 192H16v-32h16v32zm40 28c0 6.627-5.373 12-12 12s-12-5.373-12-12v-88c0-6.627 5.373-12 12-12s12 5.373 12 12v88zm48 36c0 8.837-7.163 16-16 16s-16-7.163-16-16V96c0-8.837 7.163-16 16-16s16 7.163 16 16v160zm40-88a8 8 0 00-8 8v16h-16v-32h32c.009 1.512.161 3.021.456 4.504.088.472.24.904.352 1.36.184.712.32 1.448.56 2.136H160zm40-8a8 8 0 01-16 0v-24a8 8 0 0116 0v24zm32 0a8 8 0 01-16 0v-24a8 8 0 0116 0v24zm48-24a8 8 0 0116 0v24a8 8 0 01-16 0v-24zm-32 0a8 8 0 0116 0v24a8 8 0 01-16 0v-24zm96 56H240v-.224a23.85 23.85 0 00-.496-4.736c-.048-.216-.152-.416-.2-.64-.144-.584-.352-1.128-.536-1.696a23.215 23.215 0 00-1.224-2.992c-.232-.48-.344-1.024-.608-1.488.091-.062.179-.129.264-.2.368-.24.688-.528 1.04-.8.6-.448 1.232-.864 1.792-1.368.464.416 1 .744 1.496 1.12.496.376.984.8 1.52 1.136.755.466 1.535.891 2.336 1.272.544.264 1.056.576 1.6.8.934.358 1.891.655 2.864.888.504.136.976.328 1.496.432 3.077.629 6.25.629 9.328 0 .52-.104.992-.296 1.496-.432.973-.233 1.93-.53 2.864-.888.568-.232 1.08-.544 1.6-.8a24.548 24.548 0 002.344-1.272c.528-.352 1.008-.752 1.512-1.136.504-.384 1.032-.704 1.496-1.12.464.416 1 .744 1.496 1.12.496.376.984.8 1.52 1.136.755.466 1.535.891 2.336 1.272.544.264 1.056.576 1.6.8.934.358 1.891.655 2.864.888.504.136.976.328 1.496.432 12.955 2.633 25.591-5.734 28.224-18.688.322-1.585.483-3.198.48-4.816h32v32zm48 64c0 8.837-7.163 16-16 16s-16-7.163-16-16V96c0-8.837 7.163-16 16-16s16 7.163 16 16v160zm40-36c0 6.627-5.373 12-12 12s-12-5.373-12-12v-88c0-6.627 5.373-12 12-12s12 5.373 12 12v88zm32-28h-16v-32h16v32z" transform="translate(43.676 14.676) scale(.15135)" id="E"/><path d="M361 0c-24.813 0-45 20.187-45 45v46.851A42.247 42.247 0 00303.614 90h-5.229c-10.434 0-19.993 3.797-27.386 10.072C263.607 93.797 254.048 90 243.614 90h-5.228c-10.824 0-20.708 4.083-28.207 10.784C202.316 94.068 192.127 90 181 90c-24.813 0-45 20.187-45 45v47.58c-17.459 6.192-30 22.865-30 42.42v64.434c0 38.355 16.539 76.269 47.829 109.642A44.839 44.839 0 01166 429.853V512h210v-92.836c0-15.525 7.458-24.044 12.58-35.784 11.396-22.792 17.42-48.308 17.42-73.79V45c0-24.813-20.187-45-45-45zm-75 132.386c0-6.83 5.557-12.386 12.386-12.386h5.229c6.829 0 12.386 5.556 12.386 12.386v95.228c0 6.83-5.557 12.386-12.386 12.386h-5.229c-6.829 0-12.386-5.556-12.386-12.386v-95.228zm-60 0c0-6.83 5.557-12.386 12.386-12.386h5.228c6.83 0 12.386 5.556 12.386 12.386V180h-30s-.032-46.748-.082-47.614H226zM166 135c0-8.271 6.729-15 15-15s15 6.729 15 15v45h-30v-45zm210 174.59c0 20.849-4.929 41.726-14.252 60.374-4.358 10.41-15.748 24.761-15.748 49.2V482H196v-52.147c0-19.127-7.204-37.344-20.286-51.297C157.597 359.233 136 328.085 136 289.434V225c0-8.271 6.729-15.1 15-15.1h102.43C247.239 227.361 230.556 240 211 240h-30v30c41.355 0 75 33.645 75 75h30c0-33.818-16.071-63.954-40.977-83.171a75.37 75.37 0 0017.209-12.116c7.46 12.158 20.874 20.287 36.154 20.287h5.229c23.37 0 42.385-19.014 42.385-42.386V45c0-8.271 6.729-15 15-15s15 6.729 15 15v264.59z" transform="matrix(.08089 0 0 .08089 114.293 199.293)" id="I"/><path d="M36.068 20.176l-29-20A1 1 0 005.5.999v40a1 1 0 001.568.823l29-20a.999.999 0 000-1.646zM7.5 39.095V2.904L33.739 21 7.5 39.095z" transform="rotate(14.535 -512.964 477.918) scale(1.08531)" id="O"/></defs><g fi:class="KUsePattern"><pattern id="b" width="350" height="350" patternUnits="userSpaceOnUse"><use xlink:href="#a" x="-350" y="-350"/><use xlink:href="#a" y="-350"/><use xlink:href="#a" x="350" y="-350"/><use xlink:href="#a" x="-350"/><use xlink:href="#a"/><use xlink:href="#a" x="350"/><use xlink:href="#a" x="-350" y="350"/><use xlink:href="#a" y="350"/><use xlink:href="#a" x="350" y="350"/></pattern><rect width="100%" height="100%" fill="url(#b)"/></g><g fi:class="KUsePattern"><pattern id="d" width="350" height="350" patternUnits="userSpaceOnUse"><use xlink:href="#c" x="-350" y="-350"/><use xlink:href="#c" y="-350"/><use xlink:href="#c" x="350" y="-350"/><use xlink:href="#c" x="-350"/><use xlink:href="#c"/><use xlink:href="#c" x="350"/><use xlink:href="#c" x="-350" y="350"/><use xlink:href="#c" y="350"/><use xlink:href="#c" x="350" y="350"/></pattern><rect width="100%" height="100%" fill="url(#d)"/></g><g fi:class="KUsePattern"><pattern id="f" width="350" height="350" patternUnits="userSpaceOnUse"><use xlink:href="#e" x="-350" y="-350"/><use xlink:href="#e" y="-350"/><use xlink:href="#e" x="350" y="-350"/><use xlink:href="#e" x="-350"/><use xlink:href="#e"/><use xlink:href="#e" x="350"/><use xlink:href="#e" x="-350" y="350"/><use xlink:href="#e" y="350"/><use xlink:href="#e" x="350" y="350"/></pattern><rect width="100%" height="100%" fill="url(#f)"/></g><g fi:class="KUsePattern"><pattern id="h" width="350" height="350" patternUnits="userSpaceOnUse"><use xlink:href="#g" x="-350" y="-350"/><use xlink:href="#g" y="-350"/><use xlink:href="#g" x="350" y="-350"/><use xlink:href="#g" x="-350"/><use xlink:href="#g"/><use xlink:href="#g" x="350"/><use xlink:href="#g" x="-350" y="350"/><use xlink:href="#g" y="350"/><use xlink:href="#g" x="350" y="350"/></pattern><rect width="100%" height="100%" fill="url(#h)"/></g><g fi:class="KUsePattern"><pattern id="j" width="350" height="350" patternUnits="userSpaceOnUse"><use xlink:href="#i" x="-350" y="-350"/><use xlink:href="#i" y="-350"/><use xlink:href="#i" x="350" y="-350"/><use xlink:href="#i" x="-350"/><use xlink:href="#i"/><use xlink:href="#i" x="350"/><use xlink:href="#i" x="-350" y="350"/><use xlink:href="#i" y="350"/><use xlink:href="#i" x="350" y="350"/></pattern><rect width="100%" height="100%" fill="url(#j)"/></g><g fi:class="KUsePattern"><pattern id="l" width="350" height="350" patternUnits="userSpaceOnUse"><use xlink:href="#k" x="-350" y="-350"/><use xlink:href="#k" y="-350"/><use xlink:href="#k" x="350" y="-350"/><use xlink:href="#k" x="-350"/><use xlink:href="#k"/><use xlink:href="#k" x="350"/><use xlink:href="#k" x="-350" y="350"/><use xlink:href="#k" y="350"/><use xlink:href="#k" x="350" y="350"/></pattern><rect width="100%" height="100%" fill="url(#l)"/></g><g fi:class="KUsePattern"><pattern id="n" width="350" height="350" patternUnits="userSpaceOnUse"><use xlink:href="#m" x="-350" y="-350"/><use xlink:href="#m" y="-350"/><use xlink:href="#m" x="350" y="-350"/><use xlink:href="#m" x="-350"/><use xlink:href="#m"/><use xlink:href="#m" x="350"/><use xlink:href="#m" x="-350" y="350"/><use xlink:href="#m" y="350"/><use xlink:href="#m" x="350" y="350"/></pattern><rect width="100%" height="100%" fill="url(#n)"/></g><g fi:class="KUsePattern"><pattern id="p" width="350" height="350" patternUnits="userSpaceOnUse"><use xlink:href="#o" x="-350" y="-350"/><use xlink:href="#o" y="-350"/><use xlink:href="#o" x="350" y="-350"/><use xlink:href="#o" x="-350"/><use xlink:href="#o"/><use xlink:href="#o" x="350"/><use xlink:href="#o" x="-350" y="350"/><use xlink:href="#o" y="350"/><use xlink:href="#o" x="350" y="350"/></pattern><rect width="100%" height="100%" fill="url(#p)"/></g><g fi:class="KUsePattern"><pattern id="r" width="350" height="350" patternUnits="userSpaceOnUse"><use xlink:href="#q" x="-350" y="-350"/><use xlink:href="#q" y="-350"/><use xlink:href="#q" x="350" y="-350"/><use xlink:href="#q" x="-350"/><use xlink:href="#q"/><use xlink:href="#q" x="350"/><use xlink:href="#q" x="-350" y="350"/><use xlink:href="#q" y="350"/><use xlink:href="#q" x="350" y="350"/></pattern><rect width="100%" height="100%" fill="url(#r)"/></g><g fi:class="KUsePattern"><pattern id="t" width="350" height="350" patternUnits="userSpaceOnUse"><use xlink:href="#s" x="-350" y="-350"/><use xlink:href="#s" y="-350"/><use xlink:href="#s" x="350" y="-350"/><use xlink:href="#s" x="-350"/><use xlink:href="#s"/><use xlink:href="#s" x="350"/><use xlink:href="#s" x="-350" y="350"/><use xlink:href="#s" y="350"/><use xlink:href="#s" x="350" y="350"/></pattern><rect width="100%" height="100%" fill="url(#t)"/></g><g fi:class="KUsePattern"><pattern id="v" width="350" height="350" patternUnits="userSpaceOnUse"><use xlink:href="#u" x="-350" y="-350"/><use xlink:href="#u" y="-350"/><use xlink:href="#u" x="350" y="-350"/><use xlink:href="#u" x="-350"/><use xlink:href="#u"/><use xlink:href="#u" x="350"/><use xlink:href="#u" x="-350" y="350"/><use xlink:href="#u" y="350"/><use xlink:href="#u" x="350" y="350"/></pattern><rect width="100%" height="100%" fill="url(#v)"/></g><g fi:class="KUsePattern"><pattern id="x" width="350" height="350" patternUnits="userSpaceOnUse"><use xlink:href="#w" x="-350" y="-350"/><use xlink:href="#w" y="-350"/><use xlink:href="#w" x="350" y="-350"/><use xlink:href="#w" x="-350"/><use xlink:href="#w"/><use xlink:href="#w" x="350"/><use xlink:href="#w" x="-350" y="350"/><use xlink:href="#w" y="350"/><use xlink:href="#w" x="350" y="350"/></pattern><rect width="100%" height="100%" fill="url(#x)"/></g><g fi:class="KUsePattern"><pattern id="z" width="350" height="350" patternUnits="userSpaceOnUse"><use xlink:href="#y" x="-350" y="-350"/><use xlink:href="#y" y="-350"/><use xlink:href="#y" x="350" y="-350"/><use xlink:href="#y" x="-350"/><use xlink:href="#y"/><use xlink:href="#y" x="350"/><use xlink:href="#y" x="-350" y="350"/><use xlink:href="#y" y="350"/><use xlink:href="#y" x="350" y="350"/></pattern><rect width="100%" height="100%" fill="url(#z)"/></g><g fi:class="KUsePattern"><pattern id="B" width="350" height="350" patternUnits="userSpaceOnUse"><use xlink:href="#A" x="-350" y="-350"/><use xlink:href="#A" y="-350"/><use xlink:href="#A" x="350" y="-350"/><use xlink:href="#A" x="-350"/><use xlink:href="#A"/><use xlink:href="#A" x="350"/><use xlink:href="#A" x="-350" y="350"/><use xlink:href="#A" y="350"/><use xlink:href="#A" x="350" y="350"/></pattern><rect width="100%" height="100%" fill="url(#B)"/></g><g fi:class="KUsePattern"><pattern id="D" width="350" height="350" patternUnits="userSpaceOnUse"><use xlink:href="#C" x="-350" y="-350"/><use xlink:href="#C" y="-350"/><use xlink:href="#C" x="350" y="-350"/><use xlink:href="#C" x="-350"/><use xlink:href="#C"/><use xlink:href="#C" x="350"/><use xlink:href="#C" x="-350" y="350"/><use xlink:href="#C" y="350"/><use xlink:href="#C" x="350" y="350"/></pattern><rect width="100%" height="100%" fill="url(#D)"/></g><g fi:class="KUsePattern"><pattern id="F" width="350" height="350" patternUnits="userSpaceOnUse"><use xlink:href="#E" x="-350" y="-350"/><use xlink:href="#E" y="-350"/><use xlink:href="#E" x="350" y="-350"/><use xlink:href="#E" x="-350"/><use xlink:href="#E"/><use xlink:href="#E" x="350"/><use xlink:href="#E" x="-350" y="350"/><use xlink:href="#E" y="350"/><use xlink:href="#E" x="350" y="350"/></pattern><rect width="100%" height="100%" fill="url(#F)"/></g><g fi:class="KUsePattern"><pattern id="H" width="350" height="350" patternUnits="userSpaceOnUse"><use xlink:href="#G" x="-350" y="-350"/><use xlink:href="#G" y="-350"/><use xlink:href="#G" x="350" y="-350"/><use xlink:href="#G" x="-350"/><use xlink:href="#G"/><use xlink:href="#G" x="350"/><use xlink:href="#G" x="-350" y="350"/><use xlink:href="#G" y="350"/><use xlink:href="#G" x="350" y="350"/></pattern><rect width="100%" height="100%" fill="url(#H)"/></g><g fi:class="KUsePattern"><pattern id="J" width="350" height="350" patternUnits="userSpaceOnUse"><use xlink:href="#I" x="-350" y="-350"/><use xlink:href="#I" y="-350"/><use xlink:href="#I" x="350" y="-350"/><use xlink:href="#I" x="-350"/><use xlink:href="#I"/><use xlink:href="#I" x="350"/><use xlink:href="#I" x="-350" y="350"/><use xlink:href="#I" y="350"/><use xlink:href="#I" x="350" y="350"/></pattern><rect width="100%" height="100%" fill="url(#J)"/></g><g fi:class="KUsePattern"><pattern id="L" width="350" height="350" patternUnits="userSpaceOnUse"><use xlink:href="#K" x="-350" y="-350"/><use xlink:href="#K" y="-350"/><use xlink:href="#K" x="350" y="-350"/><use xlink:href="#K" x="-350"/><use xlink:href="#K"/><use xlink:href="#K" x="350"/><use xlink:href="#K" x="-350" y="350"/><use xlink:href="#K" y="350"/><use xlink:href="#K" x="350" y="350"/></pattern><rect width="100%" height="100%" fill="url(#L)"/></g><g fi:class="KUsePattern"><pattern id="N" width="350" height="350" patternUnits="userSpaceOnUse"><use xlink:href="#M" x="-350" y="-350"/><use xlink:href="#M" y="-350"/><use xlink:href="#M" x="350" y="-350"/><use xlink:href="#M" x="-350"/><use xlink:href="#M"/><use xlink:href="#M" x="350"/><use xlink:href="#M" x="-350" y="350"/><use xlink:href="#M" y="350"/><use xlink:href="#M" x="350" y="350"/></pattern><rect width="100%" height="100%" fill="url(#N)"/></g><g fi:class="KUsePattern"><pattern id="P" width="350" height="350" patternUnits="userSpaceOnUse"><use xlink:href="#O" x="-350" y="-350"/><use xlink:href="#O" y="-350"/><use xlink:href="#O" x="350" y="-350"/><use xlink:href="#O" x="-350"/><use xlink:href="#O"/><use xlink:href="#O" x="350"/><use xlink:href="#O" x="-350" y="350"/><use xlink:href="#O" y="350"/><use xlink:href="#O" x="350" y="350"/></pattern><rect width="100%" height="100%" fill="url(#P)"/></g></svg>
